<?xml version="1.0" encoding="utf-8"?>
<!-- Generator: Adobe Illustrator 16.0.0, SVG Export Plug-In . SVG Version: 6.00 Build 0)  -->
<!DOCTYPE svg PUBLIC "-//W3C//DTD SVG 1.1//EN" "http://www.w3.org/Graphics/SVG/1.1/DTD/svg11.dtd">
<svg version="1.1" id="Layer_1" xmlns="http://www.w3.org/2000/svg" xmlns:xlink="http://www.w3.org/1999/xlink" x="0px" y="0px"
	 width="2000px" height="1669px" viewBox="0 0 2000 1669" enable-background="new 0 0 2000 1669" xml:space="preserve">
<rect x="-128" y="-113" fill="#6F6FD8" width="2280" height="1902"/>
<g>
	<path fill="none" d="M1048.566,440.697c0-7.957-4.354-11.938-13.059-11.938c-13.186,0-30.531,9.142-52.041,27.419
		c-21.514,18.279-42.591,41.969-63.229,71.065c35.813-9.198,66.15-22.196,91.022-38.983
		C1036.127,471.473,1048.566,455.619,1048.566,440.697z"/>
	<path fill="none" d="M1222.779,429.505c-22.885,0-52.915,22.383-90.092,67.148c-37.184,44.766-55.771,80.95-55.771,108.557
		c0,16.169,7.21,24.248,21.637,24.248c17.16,0,46.875-28.474,89.158-85.428c34.563-46.753,51.854-78.835,51.854-96.246
		C1239.566,435.604,1233.971,429.505,1222.779,429.505z"/>
	<path d="M861.669,272.721c0-34.297-18.408-66.104-55.211-95.43c43.022-27.081,85.55-40.627,127.582-40.627
		c30.59,0,55.211,9.507,73.864,28.509c18.65,19.002,27.979,44.154,27.979,75.455c0,20.122-3.3,38.878-9.887,56.266
		c-0.501,1.492-0.746,2.605-0.746,3.352c0,2.489,1.242,3.73,3.73,3.73c3.193,0,6.512-7.7,9.948-23.105
		c3.438-15.4,5.159-29.564,5.159-42.481c0-32.542-10.137-58.749-30.402-78.625c-20.272-19.876-47.067-29.814-80.393-29.814
		c-42.525,0-86.547,14.17-132.059,42.498c-49.744-32.56-111.168-48.84-184.285-48.84c-96.246,0-184.1,29.04-263.559,87.106
		c-79.458,58.073-119.188,122.301-119.188,192.68c0,34.821,10.381,62.613,31.149,83.375c20.762,20.77,48.432,31.149,83.003,31.149
		c52.973,0,106.689-24.621,161.154-73.863c54.465-49.242,81.697-97.981,81.697-146.232c0-39.543-21.392-59.314-64.164-59.314
		c-44.766,0-88.412,18.39-130.938,55.164c-42.527,36.78-63.791,74.551-63.791,113.313c0,15.654,4.113,28.888,12.355,39.692
		c8.236,10.813,18.343,16.216,30.327,16.216c4.745,0,7.117-0.989,7.117-2.982c0-2.232-2.127-3.354-6.377-3.354
		c-7.997,0-14.998-3.229-20.995-9.691c-6.004-6.458-9-14.164-9-23.111c0-36.273,21.2-75.099,63.604-116.472
		c42.399-41.374,82.129-62.06,119.188-62.06c37.054,0,55.584,18.035,55.584,54.092c0,45.267-26.673,91.898-80.019,139.893
		c-53.348,48-105.015,71.998-155.003,71.998c-30.59,0-54.837-8.207-72.744-24.621c-17.906-16.414-26.856-38.55-26.856-66.406
		c0-54.959,31.832-113.528,95.5-175.705c77.594-75.851,168.862-113.779,273.815-113.779c75.104,0,132.06,16.531,170.854,49.58
		c-23.862,16.414-52.815,43.652-86.867,81.703c-34.053,38.057-63.628,75.985-88.727,113.791
		c-50.204,76.603-82.766,124.854-97.675,144.748c-13.668,18.408-30.192,36.442-49.579,54.1
		c-44.241,40.295-93.577,60.438-148.007,60.438c-30.822,0-56.358-6.843-76.614-20.518c-20.256-13.675-30.38-30.834-30.38-51.48
		c0-13.179,1.988-19.771,5.969-19.771c1.242,0,1.737,2.74,1.492,8.207c-0.501,13.43,5.718,20.145,18.652,20.145
		c7.461,0,13.739-2.982,18.839-8.952c5.094-5.97,7.647-13.18,7.647-21.638c0-16.91-7.589-25.367-22.756-25.367
		c-10.445,0-19.527,4.605-27.232,13.805c-7.711,9.203-11.564,20.145-11.564,32.827c0,22.885,11.063,41.969,33.201,57.264
		c22.132,15.295,49.86,22.94,83.188,22.94c40.785,0,87.165-12.688,139.146-38.057c44.02-21.881,78.211-46.38,102.588-73.49
		c24.371-27.108,51.229-71.386,80.578-132.821c48.496-101.476,99.977-172.609,154.439-213.399l3.73,4.844
		c18.896,22.372,28.352,45.729,28.352,70.081c0,30.817-9.455,57.595-28.352,80.333c-18.903,22.744-43.151,36.471-72.744,41.192
		c-14.678-5.712-29.348-8.574-44.021-8.574c-12.438,0-18.651,1.988-18.651,5.963c0,6.225,12.311,9.332,36.932,9.332
		c2.238,0,11.314-0.746,27.232-2.238c9.698,8.213,14.549,18.167,14.549,29.861c0,9.209-2.238,20.413-6.715,33.598
		c-17.906,51.517-26.859,87.479-26.859,107.888c0,28.116,8.09,51.7,24.277,70.737c16.187,19.031,36.23,28.558,60.142,28.558
		c10.212,0,22.29-2.78,36.231-8.324c13.942-5.555,20.921-10.428,20.921-14.619c0-1.994-0.997-2.983-2.984-2.983
		c-1.248,0-3.491,0.99-6.728,2.983c-14.198,10.568-29.271,15.854-45.213,15.854c-15.447,0-28.526-5.164-39.24-15.492
		c-10.715-10.329-16.07-22.954-16.07-37.889c0-14.433,4.348-34.344,13.057-59.733c13.181-38.576,19.771-67.317,19.771-86.232
		c0-28.368-12.934-50.021-38.797-64.957c38.051-4.721,68.699-17.329,91.956-37.835C850.041,326.591,861.669,301.801,861.669,272.721
		z"/>
	<path d="M926.61,628.71c-23.15,0-34.722-10.69-34.722-32.08c0-17.16,8.45-38.55,25.36-64.16c54.71-10.938,93.76-22.7,117.14-35.26
		c23.37-12.55,35.07-27.79,35.07-45.69c0-7.71-3.17-14.238-9.521-19.59c-6.341-5.35-13.979-8.02-22.938-8.02
		c-20.64,0-47.38,8.95-80.2,26.858c-62.43,34.07-93.64,73.49-93.64,118.25c0,18.91,5.909,34.642,17.729,47.2
		c11.82,12.55,26.45,18.83,43.88,18.83c36.262,0,79.65-30.818,130.15-92.43c2.38-6.79,5.521-13.46,9.42-20.01
		C1010.29,593.33,964.38,628.71,926.61,628.71z M983.47,456.18c21.511-18.278,38.852-27.42,52.04-27.42
		c8.7,0,13.063,3.98,13.063,11.94c0,14.92-12.44,30.77-37.313,47.56c-24.869,16.79-55.21,29.79-91.02,38.98
		C940.88,498.15,961.96,474.46,983.47,456.18z"/>
	<path d="M1269.12,595.27c-21.91,22.79-37.851,34.19-47.82,34.19c-9.71,0-14.56-5.84-14.56-17.53
		c0-12.188,11.43-37.43,34.317-75.729l66.03-109.312c-10.7,1.75-19.398,2.62-26.12,2.62c-5.72,0-12.31-0.87-19.77-2.62
		l-19.021,36.19c1.99-6.96,2.98-12.562,2.98-16.79c0-14.92-7.71-22.38-23.13-22.38c-18.15,0-42.03,8.21-71.62,24.62
		c-41.432,22.63-70.11,47.318-86.07,74.08c2.25-2.94,4.51-5.92,6.79-8.99c2.98-3.97,5.47-5.96,7.47-5.96c0.99,0.25,1.49,1,1.49,2.24
		c0,0.738-2.25,3.97-6.72,9.68l-16.063,20.11c-0.8,0.988-1.59,1.948-2.39,2.93c-3.72,10.61-5.61,21.53-5.61,32.75
		c0,17.16,4.48,31.398,13.433,42.71c8.96,11.31,20.02,16.97,33.198,16.97c12.439,0,25.239-6.09,38.432-18.28
		c13.18-12.18,32.2-35.68,57.068-70.5c-7.959,15.67-11.931,30.222-11.931,43.65c0,12.93,3.601,23.68,10.83,32.26
		c7.21,8.58,16.55,12.87,28.01,12.87c16.933,0,40.08-17.68,69.473-53.05c11.538-13.68,21.237-25.44,29.107-35.3
		c1.5-5.76,3.61-11.57,6.33-17.44C1304.97,554.76,1286.92,576.76,1269.12,595.27z M1187.71,544.03
		c-42.28,56.95-72,85.43-89.16,85.43c-14.42,0-21.63-8.08-21.63-24.25c0-27.61,18.59-63.79,55.771-108.56
		c37.17-44.762,67.197-67.142,90.09-67.142c11.188,0,16.79,6.09,16.79,18.271C1239.57,465.2,1222.28,497.28,1187.71,544.03z"/>
	<path d="M1073.367,519.584c4.477-5.712,6.721-8.941,6.721-9.688c0-1.242-0.501-1.988-1.492-2.238c-1.993,0-4.48,1.988-7.467,5.963
		c-2.278,3.064-4.537,6.049-6.788,8.993c-3.901,6.543-7.042,13.211-9.422,20.001c0.799-0.976,1.594-1.935,2.396-2.922
		L1073.367,519.584z"/>
	<path d="M1520.905,511.638c-0.44,0.502-0.896,1.033-1.373,1.623c-58.757,77.465-105.313,116.198-139.666,116.198
		c-21.91,0-32.863-11.688-32.863-35.066c0-27.85,15.045-62.299,45.14-103.334c30.09-41.033,55.457-61.553,76.103-61.553
		c12.184,0,18.278,5.596,18.278,16.787c0,14.176-8.829,25.618-26.485,34.32c-22.883,11.189-34.319,23.379-34.319,36.559
		c0,11.191,5.596,16.787,16.786,16.787c11.438,0,22.943-8.58,34.509-25.74c11.564-17.16,17.347-34.318,17.347-51.479
		c0-21.881-9.203-32.828-27.604-32.828c-15.173,0-34.819,6.965-58.94,20.891c-28.603,16.169-51.357,35.439-68.27,57.822
		c-6.802,9.001-12.212,17.88-16.275,26.64c4.229-5.896,8.473-11.978,12.729-18.247c1.492-2.481,2.861-3.729,4.109-3.729
		c1.492,0,2.238,0.746,2.238,2.238c0,3.571-8.477,15.967-25.409,37.173c-1.825,7.023-2.757,13.971-2.757,20.835
		c0,18.408,6.221,34.262,18.67,47.563c12.443,13.302,27.379,19.958,44.807,19.958c26.884,0,59.49-20.92,97.82-62.765
		c13.233-14.559,23.971-26.597,32.215-36.125l1.219-2.205C1512.15,527.791,1516.152,520.348,1520.905,511.638z"/>
	<path d="M1340.104,507.286c-1.248,0-2.616,1.248-4.108,3.729c-4.256,6.271-8.499,12.353-12.729,18.247
		c-2.723,5.865-4.837,11.679-6.333,17.437c16.937-21.206,25.409-33.603,25.409-37.173
		C1342.341,508.032,1341.595,507.286,1340.104,507.286z"/>
	<path d="M1820.49,508.78c0,1.989-1.24,4.238-3.73,6.72l-16.06,22.04c-46.813,65.01-81.66,97.51-104.57,97.51
		c-11.96,0-21.729-4.29-29.319-12.87s-11.391-19.33-11.391-32.26c0-17.41,9.45-40.17,28.35-68.27
		c29.603-43.521,44.4-69.392,44.4-77.602c0-9.7-5.109-14.54-15.3-14.54c-14.92,0-35.32,14.67-61.181,44.01
		c-7.289,8.25-15.392,18.66-24.289,31.23c-21.45,30.27-47.553,73.08-78.303,128.438c-7.459-1.488-13.8-2.238-19.02-2.238
		c-5.48,0-12.813,0.75-22.012,2.238l53.621-97.028c13.608-15.74,20.431-24.62,20.431-26.642c0-1.238-0.5-1.979-1.49-2.229
		c-1.28,0-3.188,1.46-5.72,4.35c6.17-11.31,13.6-24.76,22.318-40.35c1.029-1.69,15.062-25.19,42.58-71.92
		c-1.291,10.33-2.569,20.67-3.819,31c-2.189,18.03-4.229,36.08-6.279,54.12c-7.42,12.34-16.13,26.84-26.142,43.5
		c8.74-12.98,17.142-24.74,25.199-35.29c35.021-45.86,63.551-68.79,85.592-68.79c10.688,0,19.83,4.6,27.421,13.8
		c7.579,9.21,11.38,20.399,11.38,33.58c0,17.16-10.95,41.91-32.83,74.229c-24.37,36.07-36.563,58.7-36.563,67.9
		c0,10.689,5.353,16.04,16.07,16.04c19.42,0,51.551-31.38,96.38-94.15l11.58-16.068l6.729-8.222
		c1.238-2.489,2.729-3.729,4.471-3.729C1819.99,507.29,1820.49,507.79,1820.49,508.78z"/>
	<path d="M1526.626,507.286c-1.271,0-3.185,1.461-5.721,4.352c-4.753,8.71-8.755,16.153-12,22.321l-1.22,2.205
		c13.619-15.739,20.433-24.621,20.433-26.64C1528.118,508.282,1527.616,507.536,1526.626,507.286z"/>
</g>
<g>
	<path d="M411.317,1326.945c0,3.152-10.656,17.537-31.958,43.153c-23.635,28.144-54.432,53.556-92.393,76.235l-14.22,27.758
		c-28.054,54.673-57.363,95.363-87.929,122.071c-31.531,27.546-58.91,41.321-82.125,41.321c-7.931,0-14.555-2.735-19.878-8.201
		c-5.319-5.471-7.98-12.198-7.98-20.188c0-42.268,44.79-86.009,134.36-131.219c7.35-3.997,18.377-9.571,33.083-16.718l4.353-2.839
		l51.075-98.729c-20.124,30.074-34.729,49.788-43.82,59.146c-9.096,9.354-18.282,14.036-27.568,14.036
		c-7.935,0-14.85-3.684-20.749-11.04c-5.904-7.358-8.851-15.979-8.851-25.865c0-11.986,6.865-30.7,20.604-56.146l44.689-82.012
		c4.448,0.843,9.577,1.262,15.38,1.262c5.029,0,11.993-0.732,20.894-2.208L241.118,1357.7
		c-16.251,28.601-24.376,47.313-24.376,56.146c0,9.463,3.963,14.194,11.898,14.194c20.894,0,53.006-40.267,96.345-120.81
		l26.696-49.522c4.448,0.843,9.867,1.262,16.251,1.262c5.226,0,11.703-0.732,19.443-2.208
		c-23.991,41.432-56.493,102.199-97.506,182.318c23.628-13.229,43.579-27.557,59.853-42.992
		c16.271-15.437,34.479-37.221,54.625-65.361c2.711-3.78,4.453-5.675,5.229-5.675
		C410.737,1325.053,411.317,1325.684,411.317,1326.945z M243.729,1463.686c-3.097,1.894-14.029,7.887-32.792,17.979
		c-88.024,47.521-132.039,90.213-132.039,128.063c0,15.771,8.125,23.656,24.376,23.656c20.509,0,40.917-12.095,61.231-36.272
		c20.313-24.187,45.461-66.558,75.451-127.118L243.729,1463.686z"/>
	<path d="M583.693,1326.314c0,3.355-5.713,11.218-17.137,23.584c-17.039,18.451-32.719,27.674-47.043,27.674
		c-6.003,0-11.33-1.264-15.974-3.785c-25.555,39.324-49.563,58.983-72.022,58.983c-11.616,0-21.541-5.202-29.769-15.612
		c-8.229-10.408-12.342-22.868-12.342-37.379c0-32.382,19.538-63.607,58.62-93.684c27.469-21.236,50.104-31.857,67.903-31.857
		c16.639,0,24.957,9.676,24.957,29.021c0,24.185-11.708,53.308-35.112,87.374c3.867,2.523,8.221,3.785,13.059,3.785
		c8.706,0,18.876-4.401,30.518-13.203c11.635-8.803,21.144-19.385,28.521-31.756c2.135-2.938,3.69-4.406,4.661-4.406
		C583.303,1325.053,583.693,1325.477,583.693,1326.314z M536.537,1283.89c0-17.031-7.064-25.55-21.184-25.55
		c-17.607,0-39.082,18.295-64.425,54.885c-25.347,36.59-38.016,67.398-38.016,92.422c0,14.511,6.384,21.766,19.151,21.766
		c20.896,0,43.722-18.714,68.486-56.146c-5.613-6.728-8.416-13.667-8.416-20.816c0-10.301,3.772-20.922,11.318-31.858
		c7.545-10.932,14.895-16.401,22.055-16.401c3.092,0,5.225,2.104,6.384,6.31C534.986,1301.135,536.537,1292.934,536.537,1283.89z"/>
	<path d="M770.289,1326.631c0,4.844-14.043,25.273-42.124,61.281c-23.243,29.907-41.644,44.859-55.2,44.859
		c-8.523,0-15.743-3.734-21.646-11.197c-5.908-7.461-8.86-16.451-8.86-26.969c0-8.201,3.771-19.66,11.317-34.384l-5.806,8.519
		c-17.802,24.813-30.858,41.43-39.176,49.838c-9.096,9.463-17.702,14.192-25.828,14.192c-8.515,0-15.67-3.628-21.474-10.882
		c-5.804-7.256-8.706-16.137-8.706-26.652c0-12.193,4.353-26.183,13.059-41.952l52.816-96.521c6.575,1.476,11.703,2.208,15.38,2.208
		c3.672,0,10.252-0.732,19.733-2.208l-69.066,123.648c-6.965,12.616-10.447,23.766-10.447,33.436
		c0,9.463,3.672,14.194,11.027,14.194c19.538,0,50.879-39.636,94.023-118.917l28.438-52.361c5.994,1.476,11.027,2.208,15.09,2.208
		c4.834,0,11.703-0.732,20.604-2.208l-46.433,82.327c-22.055,39.113-33.082,64.244-33.082,75.389
		c0,9.043,3.974,13.563,11.916,13.563c15.498,0,40.684-26.535,75.557-79.611l9.009-13.584l5.228-6.952
		c0.973-2.101,1.938-3.153,2.907-3.153C769.708,1324.738,770.289,1325.369,770.289,1326.631z"/>
	<path d="M935.7,1326.631c0,1.689-5.813,9.389-17.439,23.1c-14.73,17.726-28.589,26.58-41.575,26.58
		c-14.73,0-22.095-9.251-22.095-27.758c0-5.885,1.161-13.352,3.482-22.396c-12.188,11.565-22.104,23.024-29.745,34.382
		c-7.646,11.354-20.85,34.49-39.612,69.395c-10.257-0.843-16.251-1.262-17.992-1.262c-0.773,0-6.674,0.419-17.702,1.262
		l47.594-83.904c23.796-42.056,35.692-68.133,35.692-78.227c0-5.885-2.229-8.832-6.688-8.832c-10.855,0-30.534,22.656-59.032,67.971
		c-1.746,2.947-3.297,4.42-4.652,4.42c-0.773-0.207-1.159-0.838-1.159-1.893c0.188-1.055,0.58-1.896,1.159-2.527l5.232-7.898
		c29.84-43.199,50.09-64.803,60.75-64.803c15.499,0,23.252,10.832,23.252,32.488c0,16.195-7.935,37.646-23.796,64.35
		c10.057-12.617,19.633-22.918,28.729-30.912c7.35-18.714,16.489-34.382,27.423-46.999c10.928-12.617,20.749-18.927,29.454-18.927
		c5.995,0,8.995,2.84,8.995,8.518c0,10.094-13.447,24.5-40.337,43.214c-4.258,2.947-10.642,7.255-19.151,12.933l-3.482,3.154
		c-2.711,9.675-4.063,17.664-4.063,23.975c0,17.662,6.104,26.494,18.317,26.494c15.117,0,31.592-13.605,49.43-40.826
		c3.873-4.641,6.298-6.959,7.269-6.959C935.12,1324.738,935.7,1325.369,935.7,1326.631z"/>
	<path d="M1238.955,1326.945c0,3.359-10.461,17.748-31.378,43.153c-23.438,28.144-53.75,53.239-90.94,75.289l-14.51,28.704
		c-26.313,52.78-55.816,93.471-88.51,122.071c-31.34,27.546-58.424,41.321-81.254,41.321c-8.315,0-15.187-2.735-20.604-8.201
		c-5.414-5.473-8.125-12.198-8.125-20.188c0-43.108,44.79-86.852,134.36-131.219c19.344-9.675,31.822-16.195,37.436-19.557
		l49.333-98.729c-21.475,30.912-36.614,50.839-45.415,59.774c-8.807,8.936-17.848,13.403-27.134,13.403
		c-10.062,0-18.622-4.84-25.683-14.51c-7.064-9.67-10.592-21.449-10.592-35.328c0-36.378,21.857-69.395,65.584-99.045
		c29.209-19.764,52.135-29.648,68.774-29.648c11.608,0,17.411,6.938,17.411,20.816c0,3.785-0.87,8.312-2.611,13.563l16.251-31.858
		c5.226,1.475,9.769,2.208,13.642,2.208c5.025,0,12.379-0.733,22.055-2.208c-1.354,1.893-9.867,17.664-25.537,47.314
		l-71.969,135.004c25.342-15.535,45.605-30.553,60.796-45.042c15.188-14.49,32.356-35.384,51.51-62.684
		c2.901-4.197,4.833-6.305,5.806-6.305C1238.52,1325.266,1238.955,1325.896,1238.955,1326.945z M1072.527,1463.686
		c-3.68,2.313-14.609,8.306-32.792,17.979c-88.221,47.521-132.329,90.213-132.329,128.063c0,6.517,2.227,11.985,6.674,16.401
		c4.453,4.416,10.157,6.624,17.122,6.624c21.284,0,41.983-11.829,62.102-35.484c20.119-23.657,45.366-66.084,75.741-127.275
		L1072.527,1463.686z M1164.52,1275.058c0-10.725-4.741-16.087-14.22-16.087c-17.411,0-40.48,18.877-69.212,56.619
		c-28.729,37.748-43.094,68.188-43.094,91.317c0,14.091,5.609,21.134,16.832,21.134c11.412,0,30.76-18.714,58.039-56.146
		C1147.298,1324.58,1164.52,1292.303,1164.52,1275.058z"/>
	<path d="M1404.946,1326.631c0,1.689-5.813,9.389-17.439,23.1c-14.729,17.726-28.589,26.58-41.575,26.58
		c-14.73,0-22.096-9.251-22.096-27.758c0-5.885,1.161-13.352,3.482-22.396c-12.188,11.565-22.104,23.024-29.744,34.382
		c-7.646,11.354-20.85,34.49-39.612,69.395c-10.257-0.843-16.251-1.262-17.991-1.262c-0.774,0-6.676,0.419-17.701,1.262
		l47.592-83.904c23.797-42.056,35.693-68.133,35.693-78.227c0-5.885-2.229-8.832-6.688-8.832c-10.854,0-30.533,22.656-59.031,67.971
		c-1.746,2.947-3.297,4.42-4.65,4.42c-0.775-0.207-1.16-0.838-1.16-1.893c0.188-1.055,0.58-1.896,1.16-2.527l5.23-7.898
		c29.84-43.199,50.09-64.803,60.75-64.803c15.499,0,23.252,10.832,23.252,32.488c0,16.195-7.935,37.646-23.795,64.35
		c10.058-12.617,19.633-22.918,28.729-30.912c7.352-18.714,16.491-34.382,27.424-46.999c10.929-12.617,20.75-18.927,29.455-18.927
		c5.994,0,8.996,2.84,8.996,8.518c0,10.094-13.449,24.5-40.338,43.214c-4.259,2.947-10.643,7.255-19.151,12.933l-3.482,3.154
		c-2.711,9.675-4.063,17.664-4.063,23.975c0,17.662,6.104,26.494,18.317,26.494c15.117,0,31.591-13.605,49.429-40.826
		c3.873-4.641,6.299-6.959,7.271-6.959C1404.365,1324.738,1404.946,1325.369,1404.946,1326.631z"/>
	<path d="M1608.663,1326.631c0,4.426-14.138,24.85-42.414,61.281c-22.856,29.907-40.872,44.859-54.04,44.859
		c-8.914,0-16.178-3.629-21.792-10.883c-5.617-7.256-8.425-16.349-8.425-27.283c0-11.355,3.093-23.657,9.287-36.905
		c-19.351,29.441-34.148,49.313-44.4,59.616c-10.257,10.301-20.219,15.454-29.891,15.454c-10.256,0-18.862-4.784-25.827-14.353
		c-6.964-9.566-10.446-21.606-10.446-36.116c0-40.375,26.213-76.122,78.643-107.246c23.021-13.879,41.594-20.816,55.719-20.816
		c11.992,0,17.992,6.309,17.992,18.926c0,3.578-0.774,8.31-2.322,14.194l14.802-30.599c5.804,1.476,10.927,2.208,15.38,2.208
		c5.225,0,11.993-0.732,20.313-2.208l-51.363,92.421c-17.803,32.387-26.698,53.731-26.698,64.032
		c0,9.887,3.776,14.825,11.331,14.825c7.749,0,20.148-9.635,37.2-28.906c17.049-19.271,34.388-43.017,52.017-71.242
		c1.161-2.1,2.229-3.152,3.197-3.152C1608.082,1324.738,1608.663,1325.369,1608.663,1326.631z M1528.714,1274.427
		c0-10.301-4.353-15.456-13.059-15.456c-17.802,0-41.162,18.926-70.082,56.777c-28.925,37.852-43.386,68.448-43.386,91.79
		c0,13.672,5.608,20.503,16.832,20.503c13.35,0,36.465-24.076,69.355-72.233C1515.266,1316.275,1528.714,1289.148,1528.714,1274.427
		z"/>
	<path d="M1707.186,1204.244c0,8.389-12.094,25.052-36.273,49.995c-1.161,6.521-1.741,12.198-1.741,17.032
		c0,12.197,5.124,31.543,15.38,58.039c5.225,13.248,7.838,24.396,7.838,33.437c0,18.926-8.468,35.328-25.395,49.207
		c-16.932,13.879-37,20.818-60.216,20.818c-13.158,0-23.65-4.054-31.485-12.146c-7.836-8.094-11.753-18.976-11.753-32.646
		c0-15.771,5.173-31.119,15.524-46.055c10.348-14.929,21.039-22.396,32.066-22.396c1.932,0,3.672,0.424,5.225,1.262l23.216-30.912
		c6.964-9.039,16.251-21.553,27.856-37.536c3.287-14.717,8.315-27.334,15.09-37.852c6.771-10.513,13.444-15.771,20.023-15.771
		C1705.634,1198.724,1707.186,1200.566,1707.186,1204.244z M1666.848,1328.681c0-6.309-0.193-12.563-0.58-18.769
		c-0.391-6.199-0.58-15.086-0.58-26.653c0-9.463,0.387-17.349,1.16-23.657c-10.836,14.936-26.508,35.959-47.012,63.086
		c3.674,3.366,5.514,7.469,5.514,12.304c0,12.41-9.387,20.816-28.147,25.232c-7.545,1.895-14.073,6.362-19.588,13.405
		c-5.515,7.049-8.271,14.461-8.271,22.238c0,8.413,2.803,15.456,8.414,21.134c5.609,5.678,12.574,8.517,20.896,8.517
		c16.251,0,31.677-10.252,46.285-30.754C1659.543,1374.26,1666.848,1352.234,1666.848,1328.681z"/>
	<path d="M1863.02,1304.708c0,34.278-19.638,65.506-58.91,93.683c-31.92,22.924-56.877,34.384-74.868,34.384
		c-12.384,0-18.572-6.311-18.572-18.928c0-3.784,0.966-8.936,2.901-15.456l-111.146,201.562c-6.771-1.688-12.282-2.523-16.541-2.523
		c-6.384,0-12.669,1.263-18.86,3.785l238.25-425.83c5.224,1.895,10.348,2.839,15.381,2.839c5.223,0,11.605-0.944,19.15-2.839
		l-86.188,151.406c20.697-29.856,35.738-49.414,45.125-58.67c9.382-9.251,18.718-13.879,28.004-13.879
		c10.252,0,18.861,4.84,25.827,14.51C1859.537,1278.424,1863.02,1290.41,1863.02,1304.708z M1841.545,1279.474
		c0-13.667-5.613-20.503-16.831-20.503c-14.125,0-37.825,24.712-71.098,74.126c-25.732,38.275-38.597,64.562-38.597,78.857
		c0,10.725,4.543,16.087,13.64,16.087c17.797,0,41.063-18.871,69.792-56.619C1827.182,1333.678,1841.545,1303.027,1841.545,1279.474
		z"/>
</g>
<g>
	<path d="M133.141,706.271h118.535c37.439,0,65.803,2.914,85.092,8.744c19.283,5.83,34.854,17.626,46.707,35.395
		c11.854,17.771,17.78,46.396,17.78,85.88c0,26.702-4.188,45.315-12.559,55.846c-8.374,10.53-24.884,18.613-49.531,24.254
		c27.469,6.214,46.096,16.521,55.881,30.921c9.781,14.402,14.676,36.479,14.676,66.224v42.354c0,30.877-3.526,53.751-10.583,68.62
		c-7.056,14.875-18.301,25.039-33.726,30.498c-15.43,5.46-47.039,8.189-94.828,8.189H133.141V706.271z M251.958,784.449v101.602
		c5.08-0.186,9.031-0.282,11.854-0.282c11.664,0,19.094-2.864,22.296-8.606c3.197-5.736,4.798-22.154,4.798-49.248
		c0-14.296-1.318-24.315-3.951-30.057c-2.637-5.737-6.068-9.357-10.301-10.866C272.42,785.485,264.187,784.639,251.958,784.449z
		 M251.958,957.172v127.85c16.744-0.563,27.42-3.196,32.033-7.901c4.608-4.701,6.915-16.272,6.915-34.714V999.79
		c0-19.566-2.073-31.42-6.209-35.562C280.556,960.091,269.642,957.736,251.958,957.172z"/>
	<path d="M452.339,706.271h198.123v91.44h-79.306v86.646h74.226v86.926h-74.226v100.473h87.208v91.441H452.339V706.271z"/>
	<path d="M945.671,706.271l-86.644,291.541v165.385H748.959V997.813L665.42,706.273h109.151
		c17.057,89.188,26.675,149.209,28.855,180.061c6.584-48.75,17.613-108.771,33.093-180.061h109.15L945.671,706.271L945.671,706.271z
		"/>
	<path d="M1237.493,973.823c0,45.91-1.084,78.415-3.246,97.509c-2.164,19.1-8.938,36.549-20.32,52.354
		c-11.385,15.807-26.766,27.94-46.143,36.407c-19.381,8.468-41.959,12.7-67.734,12.7c-24.461,0-46.428-4-65.898-11.994
		c-19.477-7.995-35.138-19.99-46.99-35.984c-11.854-15.988-18.91-33.396-21.167-52.212c-2.258-18.813-3.387-51.738-3.387-98.777
		v-78.179c0-45.904,1.081-78.409,3.244-97.509c2.162-19.094,8.936-36.548,20.32-52.353c11.381-15.807,26.764-27.94,46.146-36.407
		c19.377-8.467,41.955-12.7,67.732-12.7c24.457,0,46.428,4,65.898,11.995c19.475,8,35.139,19.994,46.992,35.984
		c11.854,15.994,18.906,33.398,21.166,52.212c2.258,18.814,3.387,51.745,3.387,98.777L1237.493,973.823L1237.493,973.823z
		 M1118.677,823.679c0-21.26-1.178-34.854-3.527-40.78c-2.354-5.929-7.195-8.892-14.533-8.892c-6.209,0-10.963,2.399-14.254,7.197
		c-3.293,4.798-4.938,18.958-4.938,42.475v213.363c0,26.529,1.08,42.897,3.244,49.107c2.162,6.209,7.197,9.313,15.1,9.313
		c8.09,0,13.268-3.572,15.523-10.725c2.258-7.148,3.387-24.175,3.387-51.083L1118.677,823.679L1118.677,823.679z"/>
	<path d="M1547.098,706.271v456.926h-104.143l-61.809-207.719v207.719h-99.345V706.271h99.345l66.604,205.742V706.271H1547.098z"/>
	<path d="M1594.792,706.271h88.901c57.385,0,96.188,2.638,116.418,7.901c20.224,5.271,35.604,13.926,46.145,25.965
		c10.535,12.043,17.119,25.449,19.756,40.218c2.633,14.772,3.951,43.793,3.951,87.066v160.022c0,41.02-1.932,68.438-5.786,82.269
		c-3.858,13.83-10.583,24.651-20.179,32.457c-9.596,7.812-21.449,13.266-35.561,16.369c-14.112,3.104-35.375,4.656-63.783,4.656
		h-149.862V706.271z M1713.609,784.449v300.57c17.119,0,27.658-3.432,31.607-10.303c3.951-6.863,5.928-25.541,5.928-56.021v-177.52
		c0-20.693-0.66-33.96-1.977-39.794c-1.316-5.83-4.33-10.111-9.029-12.841C1735.434,785.816,1726.592,784.449,1713.609,784.449z"/>
</g>
<path d="M1747,154.28v2.54c-1,0.19-0.729,0.97-0.83,1.63c-1.14,7.3-3.895,13.75-9.676,18.65c-0.52,0.44-1.057,0.99-1.276,1.6
	c-4.631,13.05-13.394,23.66-20.554,35.22c-3.63,5.86-6.816,11.88-8.247,18.78c-1.12,5.35-3.099,10.51-5.649,15.37
	c-13.06,24.92-29.188,47.94-44.236,71.62c-4.301,6.78-8.919,13.29-10.459,21.41c-0.771,4.08,0.01,8.16-0.5,12.22
	c-1.91,15.35-3.852,30.7-5.762,46.05c-1.291,10.33-2.568,20.67-3.818,31c-2.189,18.03-4.229,36.08-6.28,54.12
	c-0.3,2.648-0.608,5.29-0.91,7.938c-0.01,0.09-0.02,0.182-0.028,0.271c-0.461,4.02-0.92,8.03-1.369,12.05
	c-2.711,24.15-5.143,48.32-5.78,72.64c-0.46,17.892-3.181,35.602-3.94,53.45c-0.1,2.49-1.147,2.62-3.067,2.62
	c-37.04-0.04-74.08-0.021-111.132-0.04c-4.891-0.01-7.288-2.51-7.051-7.37c0.09-1.95,0.461-3.93,1.063-5.78
	c1.988-6.14,4.08-12.25,6.25-18.318c3.107-8.73,2.699-18.03,4.62-26.96c3.79-17.642,7.54-35.29,11.22-52.95
	c0.8-3.852,1.602-7.71,2.391-11.562c1.239-6,2.471-12,3.682-18c6.647-32.92,12.58-66,19.68-98.818c4.13-19.13,4.27-37.91-0.23-56.82
	c-3.56-14.95-10.647-28.23-18.777-41.17c-10.71-17.06-19.46-35.14-24.109-54.9c-4.561-19.34-13.591-36.24-27.199-50.62
	c-7.461-7.89-14.529-16.09-21.121-24.7c-4.629-6.04-8.76-12.42-10.729-19.9c-1.71-6.47-0.028-11.56,4.57-15.16
	c1.789-1.41,3.31-1.52,5.317-0.49c7.552,3.87,13.472,9.59,18.84,16.02c6.313,7.56,11.803,15.79,18.58,22.97
	c4.74,5.01,9.881,9.62,15.44,13.71c1.021,0.75,2.33,1.88,3.819,0.8c1.211-0.88,0.818-2.29,0.851-3.52c0.06-2.3-0.71-4.43-1.33-6.59
	c-3.7-12.91-10.58-24.44-15.979-36.6c-5.288-11.92-11.729-23.34-17.061-35.24c-3.6-8.01-7.46-16.15-6.52-25.42
	c0.85-8.42,5.527-11.27,13.039-7.43c9.438,4.83,16.141,12.45,18.948,22.62c1.48,5.38,3.671,10.23,6.271,15.03
	c7.829,14.46,16.79,28.26,25.29,42.32c0.648,1.08,1.47,2.07,2.34,2.99c1.279,1.35,2.79,2.74,4.771,1.85
	c2.051-0.92,1.618-3.03,1.59-4.84c-0.069-3.54-2.59-6.2-3.449-9.44c-3.46-13.17-6.76-26.39-10.301-39.54
	c-4.119-15.31-5.959-31.15-10.689-46.33c-0.8-2.57-0.63-5.33-0.12-7.97c1.07-5.57,5.58-10.3,10.32-11.06
	c4.95-0.79,9.35,1.83,12.438,7.55c0.933,1.72,1.74,3.53,2.37,5.39c2.91,8.49,5.723,17.02,8.61,25.52
	c6.489,19.13,11.05,38.9,19.21,57.47c2.04,4.63,4.119,9.24,7.01,13.42c0.54,0.77,1.189,1.75,2.37,1.32
	c0.93-0.33,0.93-1.32,0.97-2.16c0.07-1.26,0.09-2.53,0.12-3.8c0.38-16.25-2.13-32.27-4-48.34c-1.87-16.1-3.28-32.18-0.681-48.4
	c0.83-5.15,3.101-8.18,7.851-9.67c1.3-0.66,2.688-0.21,4.03-0.34c3.648,0.03,5.96,2.21,7.908,4.93c2.91,4.06,4.541,8.71,5.979,13.44
	c2.729,8.94,3.16,18.27,4.75,27.39c4.222,24.26,8.142,48.61,14.521,72.438c4.132,15.45,9.722,30.28,18.031,44.01
	c4.618,7.64,11.318,11.55,20.351,11.16c10.13-0.44,17.909-5.47,24.159-12.98c5.771-6.92,11.421-13.94,17.209-20.84
	c7.541-8.99,15.74-17.25,25.312-24.09c3.552-2.53,7.472-3.95,11.86-3.65c4.648,0.31,7.328,2.89,8.318,7.47
	C1746.59,152.41,1746,153.47,1747,154.28z"/>
<g opacity="0.5" enable-background="new    ">
	<path fill="#A6A6A6" d="M425.469,130.641c10.965,10.965,18.464,24.192,22.503,39.686c4.036,15.493,3.846,30.686-0.574,45.579
		c-3.873,12.818-10.447,23.866-19.72,33.139c-10.911,10.912-24.004,18.004-39.277,21.275c-15.276,3.273-30.468,2.32-45.577-2.863
		c-13.039-4.529-24.467-11.701-34.287-21.521c-11.402-11.401-19.176-24.794-23.32-40.178c-4.312-15.547-4.256-30.876,0.164-45.987
		c3.817-12.875,10.392-23.975,19.72-33.304c11.019-11.019,24.248-18.192,39.687-21.521c15.11-3.219,30.438-2.072,45.987,3.438
		C403.593,112.911,415.158,120.33,425.469,130.641z M414.258,141.523c-13.911-13.911-30.195-21.138-48.85-21.685
		c-9.111-0.273-17.84,1.254-26.185,4.582c-8.292,3.273-15.575,8.048-21.848,14.32c-8.837,8.838-14.594,19.504-17.266,31.994
		c-2.673,12.384-1.856,24.712,2.455,36.986c3.6,10.365,9.274,19.42,17.021,27.167c13.474,13.474,29.594,20.429,48.36,20.866
		c18.71,0.381,34.558-5.918,47.542-18.902c8.891-8.892,14.701-19.557,17.429-31.995c2.726-12.11,2.018-24.33-2.127-36.659
		C427.458,158.544,421.949,149.651,414.258,141.523z M399.12,156.498c4.583,4.583,8.018,9.929,10.311,16.038
		c1.036,2.672,1.909,4.363,2.619,5.072c0.436,0.437,1.417,1.146,2.945,2.129c0.544,0.327,1.064,0.736,1.555,1.227
		c2.4,2.4,3,6.056,1.801,10.965c-1.202,4.91-3.793,9.357-7.774,13.338c-2.837,2.838-5.959,4.324-9.369,4.46
		c-3.41,0.137-6.479-1.159-9.206-3.887c-2.946-2.946-3.764-6.874-2.455-11.782c1.526-5.783,1.991-10.284,1.391-13.503
		c-0.928-4.745-2.945-8.674-6.055-11.783c-3-3.001-6.397-4.351-10.188-4.05c-3.792,0.299-7.433,2.196-10.924,5.688
		c-3.383,3.383-5.988,7.35-7.814,11.904c-1.829,4.556-2.551,8.988-2.169,13.299c0.381,5.51,2.864,10.555,7.446,15.137
		c5.346,5.346,10.909,8.184,16.693,8.51c2.455,0.164,4.118,0.683,4.991,1.556c1.2,1.2,1.705,2.769,1.514,4.704
		c-0.192,1.937-0.996,3.615-2.414,5.033c-1.8,1.801-4.353,3.232-7.65,4.296c-3.302,1.063-6.317,1.433-9.043,1.104
		c-1.255-0.164-3.137-1.117-5.646-2.863c-1.311-0.873-3.355-1.828-6.137-2.865c-6.711-2.563-12.547-6.328-17.511-11.291
		c-8.129-8.129-13.094-17.62-14.894-28.477c-1.145-6.71-0.71-13.42,1.31-20.129c2.073-6.982,5.427-12.792,10.065-17.43
		c4.527-4.527,9.969-7.787,16.325-9.779c6.354-1.99,12.941-2.523,19.761-1.595C380.599,143.16,390.773,148.151,399.12,156.498z"/>
	<path fill="#A6A6A6" d="M559.993,266.146c6.109,6.109,11.782,12.874,17.02,20.294c4.309,6.055,6.817,10.965,7.528,14.729
		c0.708,3.764-0.274,6.983-2.946,9.656c-1.691,1.69-3.423,2.604-5.196,2.74c-1.773,0.137-4.706-0.477-8.796-1.842
		c-4.801-1.527-8.539-1.418-11.21,0.328c-2.674,1.746-11.676,9.901-27.003,24.467c-14.62,14.293-23.444,22.815-26.471,25.57
		c-3.029,2.756-6.18,5.224-9.452,7.406c-9.548,6.383-18.985,9.437-28.312,9.164c-7.639-0.217-15.603-2.346-23.894-6.383
		c-8.292-4.037-15.848-9.465-22.666-16.283c-6.056-6.055-11.333-12.916-15.833-20.579c-4.502-7.665-7.597-15.126-9.288-22.38
		c-1.419-6.002-1.269-12.043,0.45-18.125c1.718-6.081,4.787-11.334,9.206-15.752c5.455-5.455,11.688-8.251,18.698-8.387
		c7.009-0.137,13.105,2.385,18.289,7.568c5.073,5.073,7.881,10.883,8.428,17.43c0.49,6.601-1.501,12.139-5.974,16.611
		c-1.146,1.145-3.383,2.728-6.71,4.746c-0.656,0.436-1.31,0.98-1.964,1.635c-1.747,1.747-2.538,3.793-2.373,6.139
		c0.163,2.346,1.282,4.554,3.355,6.627c3.654,3.654,8.236,4.964,13.747,3.928c5.509-1.037,10.937-4.227,16.284-9.574l7.365-7.527
		l19.883-20.211c11.674-12.656,18.466-20.184,20.375-22.585c1.909-2.399,3.055-4.772,3.438-7.119
		c0.272-1.909,0.257-3.341-0.042-4.295c-0.3-0.956-1.487-3.178-3.559-6.669c-1.038-1.582-1.393-3.465-1.063-5.646
		c0.326-2.183,1.199-3.981,2.618-5.4c2.946-2.945,6.464-4.147,10.556-3.602c4.09,0.547,9.3,2.893,15.629,7.037
		C547.146,254.5,553.774,259.928,559.993,266.146z"/>
	<path fill="#A6A6A6" d="M638.957,382.26c-3.764-3.765-7.039-5.128-9.82-4.091c-2.074,0.764-5.47,2.932-10.187,6.505
		c-4.72,3.573-8.77,7.052-12.152,10.433c-2.019,2.02-2.755,4.064-2.209,6.138c0.544,2.073,2.619,4.909,6.219,8.509
		c2.4,2.4,4.609,3.738,6.628,4.01c2.017,0.274,4.28-0.408,6.791-2.045c7.2-4.691,12.737-5.102,16.611-1.228
		c6.655,6.655,2.018,17.948-13.911,33.876c-10.093,10.094-18.957,16.066-26.594,17.921c-4.638,1.146-8.483,0.19-11.538-2.864
		c-3.219-3.219-2.919-7.227,0.9-12.028c2.509-3.056,4.132-5.36,4.869-6.914c0.736-1.556,1.049-3.423,0.941-5.606
		c-0.11-3.49-1.882-6.955-5.319-10.392c-2.455-2.454-4.557-3.682-6.3-3.683c-1.747,0.001-3.792,1.282-6.137,3.847
		c-0.437,0.437-3.002,2.946-7.692,7.528c-9.438,9.438-14.211,16.175-14.319,20.211c-0.164,1.473-0.028,2.672,0.409,3.602
		c0.436,0.926,1.881,3.055,4.337,6.381c1.2,1.638,1.664,3.574,1.392,5.811c-0.274,2.237-1.228,4.174-2.864,5.811
		c-4.201,4.201-9.357,4.446-15.465,0.735c-8.782-5.401-19.584-14.511-32.404-27.331c-11.238-11.238-18.33-19.638-21.275-25.202
		c-1.311-2.509-1.774-5.155-1.391-7.937c0.38-2.782,1.527-5.128,3.437-7.037c2.4-2.4,5.208-3.465,8.429-3.191
		c0.764,0.107,2.944,0.927,6.546,2.455c4.254,1.854,8.863,0.899,13.829-2.865c7.691-5.727,23.484-20.539,47.378-44.432
		c10.31-10.311,16.637-17.348,18.984-21.111c2.345-3.764,2.753-7.609,1.228-11.538c-1.529-3.928-2.264-6.765-2.209-8.509
		c0.054-1.748,0.927-3.465,2.619-5.156c2.399-2.399,5.577-3.232,9.533-2.496c3.953,0.736,7.651,2.823,11.088,6.26
		c2.181,2.182,5.208,5.537,9.083,10.065c8.182,9.601,18.465,20.593,30.849,32.976c19.802,19.803,33.685,32.596,41.65,38.378
		c1.035,0.818,1.801,1.473,2.292,1.964c1.909,1.908,2.645,4.828,2.209,8.756c-1.311,10.91-5.674,20.075-13.092,27.493
		c-3.383,3.383-6.875,5.292-10.474,5.728c-3.602,0.437-6.684-0.627-9.247-3.19c-1.91-1.909-2.974-3.736-3.191-5.483
		c-0.219-1.744-0.055-6.928,0.491-15.547c0.381-5.291-0.725-10.105-3.314-14.441C653.998,398.993,648.12,391.971,638.957,382.26z"/>
	<path fill="#A6A6A6" d="M661.295,477.425c1.363,1.363,2.727,2.892,4.092,4.582c5.89,7.311,10.583,12.711,14.074,16.203
		c3.545,3.545,6.244,5.973,8.101,7.281c2.126,1.582,3.49,2.673,4.091,3.273c1.69,1.691,1.281,3.793-1.228,6.301
		c-2.346,2.347-5.866,4.828-10.556,7.447c-4.693,2.618-9.52,4.773-14.484,6.464c-3.874,1.255-6.724,1.896-8.551,1.923
		c-1.829,0.027-3.341-0.561-4.541-1.76c-1.037-1.037-2.238-2.508-3.601-4.418c-4.038-5.674-9.22-11.675-15.547-18.002
		c-2.673-2.674-5.238-5.018-7.691-7.037c-1.964-1.637-3.41-2.92-4.337-3.846c-2.237-2.238-2.046-4.664,0.573-7.283
		c1.745-1.744,5.331-4.051,10.76-6.914c5.426-2.864,9.858-4.814,13.296-5.851c4.091-1.146,7.214-1.624,9.37-1.433
		C657.272,474.547,659.33,475.57,661.295,477.425z"/>
	<path fill="#A6A6A6" d="M816.44,521.448c7.146,7.146,12.874,14.893,17.184,23.239c1.908,3.764,3.382,6.163,4.419,7.2
		c1.091,1.091,4.009,2.756,8.755,4.992c1.527,0.764,2.891,1.746,4.091,2.945c3.055,3.055,4.174,7.773,3.356,14.156
		c-1.311,10.256-5.4,18.82-12.274,25.693c-4.693,4.693-9.671,7.297-14.934,7.815c-5.265,0.519-9.833-1.16-13.706-5.032
		c-3.165-3.165-5.129-7.42-5.893-12.766c-0.22-1.637,0.082-6.465,0.901-14.483c1.362-13.365-1.855-23.948-9.656-31.749
		c-7.092-7.092-15.315-10.133-24.67-9.125c-9.357,1.012-18.426,5.906-27.208,14.688c-13.04,13.04-20.813,27.467-23.321,43.288
		c-0.82,5.836-0.479,11.496,1.022,16.979c1.499,5.482,3.969,9.941,7.406,13.379c2.836,2.836,6.108,4.227,9.819,4.174
		c3.709-0.056,7.037-1.555,9.983-4.501c2.618-2.618,3.708-5.237,3.273-7.854c-0.165-1.038-0.464-1.857-0.899-2.455
		c-0.438-0.602-1.964-2.21-4.583-4.828c-2.346-2.347-3.546-5.046-3.6-8.102c-0.055-3.055,1.063-5.728,3.354-8.019
		c4.528-4.528,10.745-4.746,18.657-0.655c8.672,4.527,17.319,11.102,25.939,19.721c9.218,9.219,16.01,17.92,20.375,26.104
		c4.09,7.801,3.709,14.129-1.145,18.983c-1.964,1.964-4.352,2.987-7.161,3.069c-2.81,0.081-5.442-0.833-7.896-2.742
		c-2.184-1.637-3.845-2.454-4.991-2.455c-1.146,0-3.138,0.818-5.974,2.455c-11.02,6.328-22.858,9.002-35.513,8.02
		c-8.675-0.709-17.443-3.26-26.308-7.65c-8.864-4.393-16.953-10.243-24.262-17.553c-11.947-11.947-20.157-25.666-24.63-41.159
		c-4.638-15.874-4.583-31.53,0.164-46.969c3.927-12.874,10.773-24.192,20.539-33.959c9.873-9.872,21.928-16.583,36.167-20.13
		c15.218-3.872,30.52-3.299,45.904,1.719C792.601,502.191,805.038,510.047,816.44,521.448z"/>
	<path fill="#A6A6A6" d="M891.64,662.601c2.891,2.891,4.24,5.061,4.051,6.506c-0.192,1.445-2.251,4.623-6.178,9.532
		c-2.129,2.674-2.482,4.718-1.063,6.137c1.091,1.091,2.917,1.338,5.482,0.737c11.182-2.455,20.293-0.164,27.33,6.873
		c4.963,4.964,7.418,10.639,7.365,17.021c-0.056,3.109-0.832,6.396-2.332,9.86c-1.501,3.465-3.396,6.342-5.688,8.633
		c-2.565,2.564-5.797,4.596-9.697,6.096c-3.901,1.5-7.679,2.169-11.333,2.005c-6.82-0.163-12.765-2.782-17.838-7.854
		c-2.782-2.783-4.623-5.607-5.522-8.471c-0.9-2.863-1.379-7.322-1.433-13.379c0-2.291-0.492-3.927-1.474-4.908
		c-1.528-1.528-3.383-1.666-5.563-0.41c-2.183,1.255-6.029,4.638-11.539,10.147c-8.237,8.237-13.557,14.155-15.955,17.756
		c-1.256,2.018-1.857,3.683-1.8,4.991c0.053,1.31,0.872,3.409,2.454,6.301c3.437,6.383,3.327,11.402-0.327,15.057
		c-2.237,2.237-4.979,3.396-8.224,3.479c-3.247,0.08-6.452-0.914-9.615-2.987c-6.328-4.147-14.565-11.292-24.712-21.439
		c-9.655-9.655-16.147-17.839-19.475-24.548c-2.947-6-2.537-10.883,1.227-14.646c2.836-2.836,7.009-3.736,12.52-2.701
		c2.617,0.547,4.649,0.695,6.096,0.45c1.445-0.245,3.014-0.996,4.705-2.25c5.836-4.092,15.466-12.848,28.885-26.267
		c2.454-2.455,3.94-4.488,4.459-6.097c0.518-1.609,0.287-3.56-0.695-5.851c-2.348-5.4-2.074-9.545,0.818-12.438
		c2.618-2.618,6.205-3.533,10.76-2.741c4.555,0.79,10.896,3.396,19.025,7.814C877.264,650.899,885.693,656.765,891.64,662.601z"/>
	<path fill="#A6A6A6" d="M988.687,758.503c9.492,9.492,15.138,19.939,16.938,31.34c0.926,6.055,0.438,11.428-1.473,16.119
		c-1.91,4.693-5.756,9.93-11.537,15.711l-12.356,12.029c-8.456,8.456-13.339,14.539-14.647,18.248
		c-0.601,1.799-0.792,3.136-0.573,4.01c0.218,0.871,1.063,2.317,2.538,4.336c1.472,2.019,1.199,4.037-0.819,6.055
		c-2.619,2.619-6.397,4.297-11.333,5.033c-4.938,0.736-10.025,0.395-15.262-1.022c-6.491-1.692-11.975-4.774-16.447-9.247
		c-5.728-5.728-8.293-12.221-7.692-19.475c0.273-2.564-0.082-4.338-1.063-5.319c-1.092-1.092-3.219-1.854-6.383-2.291
		c-9.437-1.474-17.621-5.674-24.548-12.601c-7.147-7.147-11.401-14.457-12.766-21.93c-0.874-4.91-0.532-9.834,1.023-14.771
		c1.554-4.936,4.104-9.178,7.651-12.724c5.673-5.673,12.983-8.399,21.93-8.183c14.02,0.272,28.176,7.501,42.468,21.686
		c3.163,3.162,5.468,4.841,6.915,5.031c1.445,0.191,3.314-0.859,5.605-3.15c5.782-5.781,9.369-10.57,10.76-14.361
		c1.39-3.79,0.723-7.051-2.004-9.778c-1.636-1.636-3.588-2.604-5.851-2.903c-2.265-0.301-5.659-0.098-10.187,0.612
		c-11.785,2.073-20.322,0.464-25.612-4.827c-2.673-2.674-4.066-5.646-4.174-8.919c-0.109-3.273,1.118-6.19,3.683-8.756
		c2.618-2.618,6.286-4.188,11.005-4.706c4.718-0.518,9.861,0.042,15.425,1.678C965.011,740.063,977.939,747.756,988.687,758.503z
		 M935.827,800.397c-2.401-2.4-5.469-3.505-9.205-3.313c-3.738,0.189-6.97,1.65-9.697,4.377c-2.619,2.619-4.106,5.359-4.46,8.224
		c-0.355,2.864,0.504,5.332,2.578,7.405c4.364,4.364,10.229,2.864,17.593-4.5c3-3,4.703-5.333,5.114-6.996
		C938.157,803.931,937.517,802.198,935.827,800.397z"/>
	<path fill="#A6A6A6" d="M1076.57,847.368c3.327,3.326,5.114,5.686,5.359,7.078c0.245,1.39-0.777,3.232-3.068,5.523
		c-2.019,2.019-2.372,3.682-1.063,4.99c0.544,0.545,3.407,1.338,8.59,2.373c3.928,0.764,8.237,2.428,12.93,4.991
		c4.691,2.564,8.51,5.32,11.455,8.267c6.928,6.927,10.719,15.52,11.375,25.775c0.49,7.799-0.9,15.628-4.174,23.483
		c-3.438,8.237-8.375,15.575-14.811,22.011c-13.746,13.748-29.705,20.43-47.868,20.049c-14.077-0.219-25.669-4.883-34.778-13.992
		c-4.637-4.639-8.318-10.504-11.047-17.594c-0.545-1.418-1.118-2.428-1.718-3.027c-1.637-1.637-4.091-0.817-7.364,2.455
		c-4.308,4.309-5.974,8.863-4.991,13.664c0.872,4.474,1.253,7.282,1.145,8.43c-0.108,1.144-0.899,2.455-2.372,3.928
		c-3.273,3.273-7.625,3.967-13.052,2.086c-5.429-1.883-11.47-6.152-18.124-12.807c-11.839-11.838-19.831-24.576-23.976-38.213
		c-2.127-6.93-1.418-12.166,2.127-15.711c1.636-1.637,3.217-2.538,4.746-2.699c1.527-0.166,3.736,0.271,6.627,1.309
		c4.146,1.527,8.251,0.885,12.316-1.923c4.063-2.812,14.415-12.205,31.054-28.189c13.037-13.802,20.074-21.821,21.111-24.058
		c0.326-0.764,0.367-1.432,0.123-2.005c-0.247-0.573-1.297-2.222-3.15-4.95c-1.42-2.074-2.033-4.297-1.842-6.67
		c0.189-2.373,1.188-4.459,2.987-6.259c2.182-2.182,4.866-3.343,8.06-3.478c3.189-0.138,7.296,0.723,12.316,2.578
		C1054.913,832.093,1068.605,839.622,1076.57,847.368z M1053.74,886.399l-23.73,21.275c-0.982,0.872-1.909,1.747-2.781,2.619
		c-1.691,1.691-2.32,3.791-1.883,6.299c0.437,2.511,1.883,4.992,4.337,7.446c7.528,7.528,17.483,5.103,29.868-7.282
		c8.018-8.018,12.082-15.247,12.191-21.685c0.054-3.981-1.283-7.339-4.009-10.064
		C1063.859,881.134,1059.195,881.601,1053.74,886.399z"/>
	<path fill="#A6A6A6" d="M1220.096,937.704l-35.351,33.223c-4.2,3.98-4.99,7.283-2.372,9.901c1.31,1.31,3.49,1.69,6.547,1.146
		c12.982-2.4,23.893,0.817,32.73,9.654c8.674,8.675,12.927,18.222,12.766,28.641c-0.056,4.638-1.215,9.042-3.479,13.216
		c-2.266,4.173-6.344,9.313-12.233,15.424l-28.802,30.276c-2.512,2.619-4.053,4.842-4.625,6.668
		c-0.574,1.828-0.613,4.788-0.122,8.879c0.325,2.838-0.384,5.129-2.128,6.873c-5.892,5.892-17.729-0.055-35.512-17.838
		c-15.822-15.82-20.979-26.484-15.467-31.994c0.927-0.928,1.771-1.5,2.537-1.719c0.762-0.219,3.027-0.572,6.791-1.064
		c5.291-0.707,13.938-7.063,25.94-19.064c7.255-7.254,11.862-13.229,13.828-17.921c2.728-6.327,1.772-11.812-2.863-16.447
		c-3.329-3.329-6.983-4.583-10.966-3.765c-2.893,0.602-6.738,3.302-11.537,8.102l-15.793,15.793
		c-6.603,7.364-10.23,11.646-10.884,12.847c-0.655,1.201-1.119,4.173-1.39,8.919c-0.111,2.182-0.929,4.038-2.455,5.564
		c-6.166,6.166-17.266,1.228-33.305-14.811c-18.766-18.767-24.957-31.34-18.574-37.723c1.473-1.473,2.902-2.305,4.296-2.495
		c1.39-0.19,4.077,0.067,8.06,0.776c3.546,0.601,8.947-1.936,16.202-7.609c7.255-5.675,18.356-15.983,33.304-30.931
		c11.729-11.729,19.529-20.183,23.403-25.367c1.471-1.908,2.317-3.545,2.536-4.909c0.218-1.363-0.055-3.246-0.818-5.646
		c-1.639-5.127-1.309-8.838,0.982-11.129c2.727-2.727,6.217-3.654,10.473-2.781c4.254,0.873,10.992,3.955,20.213,9.246
		c12.546,7.093,21.737,13.556,27.575,19.394C1222.768,932.194,1222.932,935.087,1220.096,937.704z"/>
	<path fill="#A6A6A6" d="M1302.005,1083.275l-47.542,47.542c-3.764,3.764-6.179,6.86-7.242,9.288
		c-1.064,2.428-1.296,5.413-0.695,8.959c0.489,2.892,0.6,5.048,0.327,6.465c-0.272,1.419-1.063,2.782-2.373,4.092
		c-7.036,7.036-19.474,1.636-37.313-16.202c-9.603-9.602-16.448-17.977-20.538-25.121c-1.366-2.455-1.951-4.951-1.76-7.487
		c0.189-2.536,1.158-4.677,2.904-6.424c1.473-1.473,2.918-2.318,4.337-2.536c1.418-0.219,4.255,0,8.511,0.654
		c2.943,0.438,6.189-0.408,9.736-2.535c3.545-2.128,8.127-6.002,13.747-11.621c1.8-1.801,5.046-5.29,9.738-10.474
		c4.691-5.182,7.392-8.237,8.101-9.164c1.908-2.563,2.1-5.81,0.572-9.737c-1.909-4.856-1.418-8.729,1.474-11.62
		c3.437-3.437,8.21-3.79,14.319-1.064c8.454,3.765,16.992,8.318,25.612,13.665c8.619,5.347,14.837,9.93,18.657,13.748
		C1305.576,1076.702,1305.387,1079.894,1302.005,1083.275z M1321.643,1031.233c4.746,4.746,7.624,9.397,8.633,13.951
		c1.01,4.557,0.013,8.334-2.986,11.334c-4.201,4.201-9.629,5.428-16.283,3.682c-10.53-2.781-20.512-8.892-29.949-18.329
		c-3.982-3.982-6.384-7.91-7.201-11.784c-1.199-5.127-0.055-9.436,3.438-12.928c4.691-4.689,11.729-5.018,21.111-0.982
		C1307.95,1020.269,1315.696,1025.287,1321.643,1031.233z"/>
	<path fill="#A6A6A6" d="M1368.531,1138.509c9.709,9.71,15.846,20.703,18.41,32.977c2.4,11.675,0.164,20.949-6.709,27.822
		c-4.746,4.746-10.229,6.955-16.447,6.628c-5.839-0.273-10.912-2.565-15.221-6.874c-4.528-4.528-6.3-9.573-5.318-15.138
		c0.326-1.745,1.935-5.429,4.827-11.047c3.11-6.054,2.591-11.156-1.555-15.302c-3.001-3.001-6.833-4.214-11.497-3.641
		c-4.664,0.572-8.906,2.77-12.723,6.586c-6.547,6.547-10.012,14.701-10.393,24.467c-0.273,7.91,2.481,14.755,8.265,20.538
		c2.728,2.728,5.249,4.787,7.569,6.179c2.316,1.391,5.686,2.878,10.105,4.46c1.145,0.382,2.181,1.036,3.108,1.964
		c1.854,1.854,2.618,4.363,2.292,7.527c-0.329,3.165-1.665,5.92-4.01,8.265c-2.455,2.455-6.043,4.022-10.76,4.706
		c-4.721,0.682-9.725,0.396-15.017-0.859c-11.456-2.729-22.012-8.92-31.667-18.574c-11.238-11.239-17.539-24.086-18.902-38.541
		c-1.854-18.438,3.627-34.068,16.447-46.889c12.328-12.328,27.248-17.811,44.761-16.446
		C1340.845,1118.571,1355.656,1125.634,1368.531,1138.509z"/>
	<path fill="#A6A6A6" d="M1442.83,1212.809c2.727,2.728,6.571,7.773,11.537,15.138c1.035,1.475,1.964,2.619,2.783,3.438
		c0.926,0.928,3.218,2.236,6.873,3.928c1.745,0.764,3.053,1.582,3.927,2.455c2.509,2.509,3.436,6.654,2.782,12.438
		c-0.492,4.637-1.608,9.138-3.354,13.501c-1.747,4.366-3.738,7.666-5.975,9.901c-2.182,2.184-4.762,3.232-7.732,3.15
		c-2.974-0.082-5.605-1.268-7.896-3.559c-1.91-1.91-3.151-4.078-3.723-6.506c-0.574-2.428-0.942-6.888-1.105-13.379
		c-0.109-6.874-1.309-11.457-3.6-13.748c-1.527-1.527-3.41-2.291-5.646-2.29c-2.237,0-4.119,0.765-5.646,2.291
		c-2.674,2.674-2.62,7.747,0.163,15.22c5.072,13.365,7.609,24.957,7.609,34.777c0,8.291-3,15.438-9,21.438
		c-7.584,7.583-17.239,10.582-28.967,9.001c-10.146-1.309-19.367-6.109-27.658-14.402c-2.127-2.127-5.646-6.356-10.555-12.682
		c-4.692-5.894-7.365-9.166-8.021-9.82c-0.71-0.709-1.609-1.446-2.7-2.209c-1.8-1.365-3.056-2.401-3.764-3.109
		c-2.564-2.564-3.928-5.237-4.092-8.02c-0.219-4.256,0.887-9.506,3.314-15.752c2.427-6.247,5.195-10.924,8.306-14.034
		c5.019-5.019,9.491-5.563,13.419-1.636c1.527,1.526,2.428,3.438,2.701,5.729c0.271,2.291,0.271,7.664,0,16.12
		c-0.165,4.637,0.04,8.141,0.613,10.515c0.572,2.372,1.704,4.404,3.396,6.096c1.801,1.801,3.723,2.769,5.769,2.904
		c2.045,0.137,3.859-0.585,5.441-2.168c2.456-2.455,2.592-6.791,0.41-13.012c-4.476-13.091-6.369-23.879-5.688-32.361
		c0.682-8.483,4.022-15.725,10.023-21.726c6.491-6.491,14.073-10.092,22.748-10.8
		C1421.908,1198.597,1433.011,1202.989,1442.83,1212.809z"/>
	<path fill="#A6A6A6" d="M1466.969,1327.122c5.182,5.182,7.883,11.482,8.102,18.9c0.217,7.529-2.564,14.186-8.347,19.968
		c-5.4,5.4-11.894,8.019-19.476,7.854c-7.418-0.219-13.721-2.918-18.902-8.1c-5.183-5.184-7.883-11.485-8.1-18.902
		c-0.166-7.584,2.535-14.156,8.1-19.721c5.674-5.674,12.246-8.375,19.723-8.102
		C1455.43,1319.293,1461.73,1321.993,1466.969,1327.122z"/>
	<path fill="#A6A6A6" d="M1567.371,1380.228l-27.657,27.658c-3.272,3.273-5.143,6.751-5.604,10.434
		c-0.467,3.682,0.559,6.777,3.067,9.286c2.128,2.128,5.919,3.954,11.374,5.483c1.31,0.327,2.373,0.9,3.191,1.719
		c1.309,1.309,1.717,3.299,1.228,5.973c-0.492,2.673-1.665,4.938-3.519,6.792c-3.383,3.384-8.483,4.772-15.302,4.173
		c-14.349-1.146-27.031-7.229-38.05-18.248c-8.729-8.729-13.271-18.206-13.625-28.436c-0.354-10.228,3.505-19.378,11.579-27.452
		l37.804-37.804c1.255-1.255,1.882-2.183,1.883-2.783c-0.001-0.6-0.628-1.527-1.883-2.781l-8.428-8.428
		c-1.583-1.584-2.332-2.85-2.25-3.807c0.082-0.953,1.076-2.385,2.986-4.295l3.601-3.601c1.692-1.581,3.519-2.153,5.482-1.719
		l61.044,13.911c1.418,0.436,2.809,1.336,4.172,2.7l6.629,6.628c1.363,1.363,1.963,2.592,1.801,3.682
		c-0.165,1.091-1.174,2.565-3.027,4.42l-11.048,11.047c-1.636,1.637-2.442,2.957-2.413,3.969c0.027,1.008,0.885,2.358,2.576,4.051
		l15.139,15.138c2.018,2.017,2.959,3.694,2.824,5.032c-0.138,1.336-1.406,3.205-3.806,5.604l-4.827,4.827
		c-2.619,2.619-4.816,4.051-6.588,4.297c-1.774,0.245-3.67-0.643-5.688-2.66l-14.811-14.811c-1.527-1.527-2.838-2.291-3.928-2.291
		C1570.207,1377.937,1568.898,1378.701,1567.371,1380.228z"/>
	<path fill="#A6A6A6" d="M1691.34,1408.949l-26.348,24.876c-2.621,2.51-6.411,6.247-11.375,11.211
		c-5.51,5.51-8.674,8.836-9.492,9.982c-1.855,2.618-1.828,4.882,0.082,6.792c1.637,1.636,5.195,3.095,10.679,4.377
		c5.481,1.282,8.741,1.405,9.778,0.368c0.6-0.6,1.09-2.291,1.473-5.072c0.273-2.02,0.928-3.547,1.964-4.583
		c5.892-5.892,16.093-1.583,30.604,12.929c7.528,7.528,12.709,14.238,15.548,20.129c1.144,2.347,1.555,4.829,1.227,7.445
		c-0.326,2.621-1.337,4.775-3.027,6.466c-2.454,2.454-5.347,2.999-8.673,1.637c-0.711-0.272-2.647-1.501-5.812-3.683
		c-2.838-1.963-7.433-3.588-13.787-4.867c-6.355-1.283-10.105-1.352-11.25-0.207c-0.766,0.766-2.047,6.656-3.847,17.676
		c-1.802,11.02-3.083,20.894-3.845,29.621c-0.547,5.674-0.725,9.861-0.533,12.561c0.189,2.701,0.857,6.043,2.005,10.024
		c1.8,6.056,1.336,10.447-1.392,13.175c-2.892,2.892-6.396,3.913-10.514,3.068c-4.12-0.847-8.334-3.424-12.643-7.732l-26.513-26.513
		c-3.274-3.382-4.639-7.201-4.092-11.456l3.847-31.012c0.982-8.184,1.512-13.107,1.596-14.771c0.08-1.662-0.15-2.768-0.695-3.313
		c-0.655-0.655-1.583-0.602-2.783,0.162s-3.164,2.511-5.891,5.238c-2.455,2.454-3.971,4.514-4.542,6.178
		c-0.573,1.664-0.669,4.27-0.286,7.814c0.272,2.563-0.709,4.965-2.945,7.2c-3.819,3.819-8.594,4.556-14.32,2.21
		c-5.729-2.348-13.229-8.156-22.502-17.43c-10.911-10.911-17.539-18.467-19.885-22.666c-1.311-2.4-1.787-5.086-1.432-8.061
		c0.354-2.972,1.459-5.387,3.313-7.24c2.074-2.074,5.02-2.729,8.839-1.965c3.218,0.71,5.427,1.009,6.628,0.9
		c1.199-0.11,2.672-0.709,4.418-1.801c8.891-6.383,21.274-17.565,37.15-33.549l17.92-17.92c6.109-6.109,9.695-10.324,10.76-12.643
		c1.063-2.318,0.533-4.869-1.595-7.651c-3.874-5.073-4.256-9.164-1.146-12.274c2.072-2.072,4.922-2.958,8.551-2.659
		c3.627,0.3,8.495,1.868,14.605,4.706c19.584,9,32.813,16.938,39.687,23.812C1693.958,1403.549,1694.121,1406.386,1691.34,1408.949z
		"/>
</g>
</svg>
