<?xml version="1.0" encoding="utf-8"?>
<!-- Generator: Adobe Illustrator 16.0.0, SVG Export Plug-In . SVG Version: 6.00 Build 0)  -->
<!DOCTYPE svg PUBLIC "-//W3C//DTD SVG 1.1//EN" "http://www.w3.org/Graphics/SVG/1.1/DTD/svg11.dtd">
<svg version="1.1" id="Layer_1" xmlns="http://www.w3.org/2000/svg" xmlns:xlink="http://www.w3.org/1999/xlink" x="0px" y="0px"
	 width="2000px" height="2000px" viewBox="0 0 2000 2000" enable-background="new 0 0 2000 2000" xml:space="preserve">
<symbol  id="Arrow_26" viewBox="-22.86 -13.14 45.72 26.28">
	<polygon fill="none" points="-22.86,-13.14 22.86,-13.14 22.86,13.14 -22.86,13.14 	"/>
	<g>
		<polygon points="-22.86,-6.339 0.069,-6.339 0.069,-13.14 22.86,0.001 0.069,13.14 0.069,6.339 -22.86,6.339 		"/>
	</g>
</symbol>
<rect x="-129" y="-96" fill="#FFFFFF" width="2304" height="2235"/>
<g>
	<path d="M750.089,151.133c0,15.142-18.605,44.246-55.81,87.312c-37.209,43.071-73.399,77.507-108.58,103.303
		c-26.666,58.423-54.18,101.064-82.55,127.93c-28.369,26.865-66.658,46.484-114.862,58.848
		c84.833,22.603,135.616,35.765,152.346,39.498c16.731,3.728,32.772,5.597,48.124,5.597c22.167,0,42.202-8.051,60.106-24.147
		c1.919-1.064,3.088-1.599,3.519-1.599c1.064,0.43,1.704,0.959,1.919,1.599c0,3.428-5.652,9.095-16.946,17.021
		c-20.889,14.342-51.267,21.518-91.125,21.518c-29.204,0-57.338-2.773-84.409-8.315c-27.07-5.547-68.313-17.166-123.732-34.861
		c-35.601,7.036-72.26,10.554-109.984,10.554c-66.934,0-100.395-10.234-100.395-30.703c0-19.189,25.576-28.784,76.733-28.784
		c39.643,0,98.791,10.234,177.447,30.703c23.467-9.165,44.321-22.757,62.561-40.777c18.24-18.015,41.232-47.919,68.967-89.711
		c-63.54,55.439-122.922,83.154-178.142,83.154c-37.529,0-67.433-11.084-89.71-33.262c-22.283-22.173-33.422-52.131-33.422-89.871
		c0-57.778,27.345-112.578,82.035-164.39c54.689-51.812,112.523-77.717,173.504-77.717c28.145,0,50.582,7.251,67.323,21.748
		c16.736,14.502,25.106,34.116,25.106,58.848c0,43.711-20.469,88.911-61.406,135.605s-80.491,70.042-118.655,70.042
		c-16.206,0-29.904-5.117-41.097-15.352c-11.194-10.234-16.791-22.813-16.791-37.739c0-11.514,3.568-21.478,10.714-29.904
		c7.141-8.42,15.617-12.633,25.426-12.633c13.218,0,19.829,6.506,19.829,19.509c0,7.036-2.559,13.273-7.676,18.709
		c-5.117,5.438-10.874,8.156-17.271,8.156c-10.449,0-15.461-4.797-15.032-14.392c0.21-6.182-0.535-9.275-2.239-9.275
		c-4.692,0-7.036,6.611-7.036,19.829c0,13.433,5.062,24.626,15.192,33.582c10.124,8.955,22.757,13.433,37.899,13.433
		c35.181,0,72.65-22.972,112.418-68.922c39.763-45.945,59.647-89.281,59.647-130.009c0-21.958-7.516-40.028-22.547-54.21
		c-15.032-14.177-34.276-21.269-57.729-21.269c-56.504,0-110.609,28.254-162.311,84.753
		c-51.707,56.504-77.558,115.352-77.558,176.543c0,28.784,9.22,51.387,27.665,67.803c18.439,16.421,43.761,24.626,75.958,24.626
		c27.715,0,55.274-6.821,82.675-20.469c27.395-13.643,61.136-37.419,101.224-71.321c33.472-56.074,57.778-94.988,72.92-116.736
		c14.497-20.894,31.873-42.002,52.131-63.325c39.443-41.362,69.612-62.046,90.51-62.046
		C745.717,139.62,750.089,143.458,750.089,151.133z M327.542,541.639c-74.819-23.667-125.656-35.5-152.511-35.5
		c-27.924,0-41.882,6.187-41.882,18.55c0,16.631,32.717,24.946,98.156,24.946C266.685,549.634,298.768,546.971,327.542,541.639z
		 M744.652,151.133c0-4.688-2.559-7.036-7.676-7.036c-15.781,0-37.419,16.101-64.924,48.293
		c-24.521,28.784-51.812,75.374-81.875,139.763c36.46-29.634,71.321-63.91,104.583-102.823
		C728.021,190.422,744.652,164.356,744.652,151.133z"/>
	<path d="M816.773,454.806c0,3.403-6.297,11.374-18.885,23.912c-18.78,18.709-36.06,28.06-51.847,28.06
		c-6.616,0-12.488-1.279-17.605-3.838c-28.164,39.873-54.625,59.807-79.376,59.807c-12.803,0-23.742-5.277-32.807-15.832
		c-9.07-10.554-13.603-23.187-13.603-37.899c0-32.832,21.533-64.495,64.604-94.988c30.273-21.533,55.22-32.302,74.839-32.302
		c18.335,0,27.505,9.81,27.505,29.424c0,24.521-12.903,54.05-38.699,88.591c4.263,2.559,9.06,3.838,14.392,3.838
		c9.595,0,20.804-4.462,33.631-13.388c12.823-8.925,23.302-19.654,31.433-32.197c2.354-2.979,4.067-4.468,5.137-4.468
		C816.343,453.527,816.773,453.957,816.773,454.806z M764.801,411.79c0-17.271-7.786-25.906-23.347-25.906
		c-19.404,0-43.071,18.55-71.001,55.649c-27.935,37.1-41.897,68.337-41.897,93.708c0,14.712,7.036,22.068,21.108,22.068
		c23.027,0,48.184-18.975,75.479-56.929c-6.187-6.821-9.275-13.857-9.275-21.108c0-10.444,4.158-21.213,12.473-32.302
		c8.315-11.084,16.416-16.631,24.307-16.631c3.408,0,5.757,2.134,7.036,6.396C763.092,429.275,764.801,420.96,764.801,411.79z"/>
	<path d="M996.194,454.487c0,2.568-6.731,10.799-20.184,24.701c-18.58,19.459-34.816,29.189-48.698,29.189
		c-9.4,0-17.196-5.117-23.387-15.352c-18.979,26.226-34.436,44.406-46.375,54.53c-11.943,10.125-23.987,15.192-36.14,15.192
		c-10.874,0-20.044-3.788-27.505-11.354c-7.466-7.565-11.194-16.681-11.194-27.345c0-12.578,7.141-30.913,21.428-55.01
		l50.532-84.753c10.444,1.069,17.48,1.599,21.108,1.599c7.886,0,14.177-0.53,18.87-1.599l-66.843,108.101
		c-14.712,24.307-22.068,41.152-22.068,50.532c0,10.024,5.647,15.032,16.951,15.032c10.444,0,21.158-4.797,32.142-14.392
		c10.979-9.595,26.706-27.715,47.174-54.37c-1.919-6.396-2.878-12.043-2.878-16.951c0-19.399,5.967-39.338,17.91-59.807
		c11.938-20.469,23.452-30.703,34.541-30.703c5.327,0,7.996,3.093,7.996,9.275c0,15.991-17.7,48.933-53.091,98.826
		c4.482,9.595,11.424,14.392,20.829,14.392c16.231,0,35.985-14.437,59.272-43.316c4.268-5.127,7.046-7.695,8.33-7.695
		C995.764,453.208,996.194,453.637,996.194,454.487z"/>
	<path d="M1157.386,455.446c0,0.64-1.925,3.408-5.763,8.306l-13.762,17.241c-44.176,54.505-82.055,81.755-113.638,81.755
		c-14.942,0-27.48-5.387-37.614-16.151c-10.134-10.764-15.202-24.252-15.202-40.458c0-38.379,26.755-72.17,80.276-101.384
		c28.145-15.352,51.063-23.027,68.762-23.027c7.676,0,14.232,2.294,19.67,6.876c5.437,4.587,8.155,10.184,8.155,16.791
		c0,15.352-10.024,28.415-30.063,39.178c-20.044,10.77-53.521,20.844-100.425,30.224c-14.502,21.963-21.748,40.298-21.748,55.01
		c0,18.34,9.925,27.505,29.773,27.505c33.722,0,75.019-32.887,123.897-98.671c2.559-3.408,4.691-5.112,6.401-5.112
		C1156.955,453.742,1157.386,454.382,1157.386,455.446z M1130.36,396.119c0-6.821-3.733-10.234-11.194-10.234
		c-11.303,0-26.176,7.836-44.615,23.507c-18.445,15.672-36.515,35.98-54.21,60.927c30.703-7.886,56.714-19.029,78.037-33.422
		C1119.696,422.504,1130.36,408.912,1130.36,396.119z"/>
</g>
<g>
	<path d="M842.457,1537.913l-148.863,235.063c23.208-31.828,40.557-53.155,52.052-63.987c11.49-10.827,22.431-16.245,32.823-16.245
		c12.376,0,22.488,5.029,30.336,15.085c7.843,10.06,11.77,22.71,11.77,37.962c0,33.377-21.219,66.199-63.656,98.468
		c-31.61,24.094-59.678,36.138-84.212,36.138c-11.495,0-20.835-4.367-28.015-13.096c-7.186-8.729-10.775-20.059-10.775-33.982
		c0-16.578,10.609-41.884,31.828-75.924l137.259-220.145c5.968,1.771,12.376,2.652,19.229,2.652
		C827.537,1539.902,834.277,1539.239,842.457,1537.913z M796.372,1719.93c0-14.805-6.19-22.213-18.566-22.213
		c-16.137,0-43.655,26.637-82.554,79.902c-29.176,39.785-43.764,66.531-43.764,80.232c0,11.719,5.745,17.572,17.24,17.572
		c19.893,0,46.136-19.836,78.742-59.512C780.069,1776.24,796.372,1744.246,796.372,1719.93z"/>
	<path d="M1076.359,1768.833c0,4.651-16.152,26.119-48.457,64.412c-26.113,31.435-46.695,47.151-61.739,47.151
		c-10.185,0-18.483-3.813-24.897-11.438c-6.418-7.626-9.625-17.184-9.625-28.679c0-11.936,3.533-24.866,10.609-38.79
		c-22.104,30.947-39.013,51.834-50.726,62.661c-11.718,10.827-23.099,16.245-34.149,16.245c-11.718,0-21.55-5.029-29.507-15.085
		c-7.957-10.055-11.936-22.71-11.936-37.962c0-42.438,29.948-80.01,89.848-112.725c26.301-14.588,47.52-21.881,63.656-21.881
		c13.702,0,20.556,6.631,20.556,19.893c0,3.76-0.886,8.733-2.652,14.919l16.909-32.159c6.631,1.549,12.484,2.32,17.571,2.32
		c5.968,0,13.702-0.771,23.208-2.32l-58.683,97.142c-20.338,34.04-30.502,56.476-30.502,67.304c0,10.391,4.315,15.582,12.946,15.582
		c8.853,0,23.021-10.127,42.499-30.383c19.479-20.256,39.289-45.215,59.43-74.882c1.326-2.207,2.543-3.315,3.652-3.315
		C1075.697,1766.844,1076.359,1767.507,1076.359,1768.833z M985.02,1713.963c0-10.828-4.973-16.246-14.919-16.246
		c-20.338,0-47.027,19.893-80.068,59.678c-33.045,39.785-49.565,71.945-49.565,96.479c0,14.371,6.408,21.551,19.229,21.551
		c15.251,0,41.661-25.307,79.239-75.924C969.655,1757.949,985.02,1729.436,985.02,1713.963z"/>
	<path d="M1241.469,1768.833c0,2.88-15.598,21.472-46.789,55.782c-34.066,37.189-63.045,55.781-86.938,55.781
		c-15.488,0-28.761-5.916-39.82-17.737c-11.066-11.821-16.594-25.912-16.594-42.271c0-18.566,7.512-37.796,22.545-57.688
		c15.029-19.893,35.253-37.02,60.673-51.389c21.437-12.377,38.899-18.566,52.384-18.566c16.354,0,24.534,9.729,24.534,29.176
		c0,15.25-5.139,30.502-15.417,45.752c-10.277,15.252-20.504,22.877-30.668,22.877c-9.945,0-14.919-4.973-14.919-14.92
		c0-11.713,10.164-22.545,30.502-32.49c15.691-7.734,23.54-17.904,23.54-30.502c0-9.947-5.419-14.92-16.246-14.92
		c-18.349,0-40.894,18.234-67.635,54.705c-26.746,36.469-40.117,67.085-40.117,91.837c0,20.778,9.734,31.165,29.207,31.165
		c30.533,0,71.908-34.424,124.127-103.271c2.875-3.538,4.979-5.31,6.305-5.31
		C1241.023,1767.066,1241.469,1767.729,1241.469,1768.833z"/>
	<path d="M1417.352,1533.935c-1.771,3.098-4.532,7.626-8.288,13.593c-5.75,9.283-14.37,23.1-25.86,41.443
		c-5.527,9.506-14.039,23.762-25.529,42.77l-57.025,92.168c-19.012,30.725-35.143,58.574-48.404,83.549
		c-14.811,27.85-26.746,49.4-35.807,64.651l-4.311,6.631c-5.968-1.326-11.826-1.989-17.572-1.989c-4.863,0-12.049,0.663-21.55,1.989
		c5.087-8.62,10.718-18.344,16.909-29.176l38.459-66.972c5.744-9.946,14.365-24.975,25.859-45.09l121.677-203.567
		c9.061,1.771,15.8,2.652,20.224,2.652C1400.553,1536.587,1407.623,1535.706,1417.352,1533.935z M1446.03,1768.833
		c-0.223,0.663-1.331,2.435-3.32,5.315l-14.272,19.586c-41.82,57.777-73.354,86.662-94.593,86.662
		c-9.517,0-17.925-3.211-25.229-9.625c-7.304-6.418-10.951-13.723-10.951-21.918c0-7.081,6.186-22.907,18.566-47.478l0.331-1.331
		c4.197-8.186,6.3-14.272,6.3-18.262c0-4.869-3.647-9.407-10.94-13.613c-8.402,3.543-15.365,5.314-20.888,5.314
		c-7.739,0-11.604-2.211-11.604-6.641c0-3.751,3.647-5.626,10.941-5.626c7.071,0,13.594,1.104,19.561,3.31
		c11.051-4.848,28.73-21.28,53.047-49.291c13.039-14.992,26.41-22.492,40.117-22.492c16.795,0,25.197,7.957,25.197,23.871
		c0,10.609-4.258,21.166-12.765,31.662c-8.511,10.5-16.966,15.748-25.362,15.748c-9.506,0-14.257-4.311-14.257-12.93
		c0-7.957,7.181-16.464,21.55-25.529c5.969-3.756,8.952-9.061,8.952-15.914c0-5.305-3.429-7.957-10.278-7.957
		c-9.506,0-21.441,8.377-35.807,25.13c-18.348,20.949-33.268,33.958-44.758,39.023c22.985,10.63,34.48,22.913,34.48,36.858
		c0,7.75-5.418,22.689-16.246,44.826c-4.641,9.299-6.962,15.717-6.962,19.255c0,5.761,3.647,8.636,10.94,8.636
		c20.773,0,54.705-35.086,101.784-105.265c1.544-2.207,2.983-3.315,4.31-3.315C1445.311,1766.844,1446.03,1767.507,1446.03,1768.833
		z"/>
</g>
<g>
	<path d="M412.925,732.44l-35.539,227.351c-5.623,35.992-10.333,60.541-14.128,73.642c-3.8,13.107-10.111,23.918-18.934,32.443
		s-21.083,14.803-36.785,18.828c-15.701,4.025-40.787,6.039-75.262,6.039h-75.417v-50.205c19.323,0,31.763-0.748,37.314-2.25
		c5.551-1.498,8.327-4.855,8.327-10.064c0-2.523-2.569-13.5-7.707-32.917L126.691,732.44H239.6l40.869,212.188l19.934-212.188
		H412.925z"/>
	<path d="M716.554,842.797v76.965c0,28.263-1.847,48.984-5.542,62.164c-3.694,13.185-11.598,25.5-23.705,36.943
		c-12.113,11.449-27.66,19.893-46.641,25.34c-18.986,5.447-40.792,8.17-65.42,8.17c-27.506,0-50.797-2.33-69.885-6.986
		c-19.087-4.654-33.917-11.682-44.486-21.076c-10.573-9.391-18.116-20.758-22.628-34.101c-4.517-13.34-6.773-33.351-6.773-60.033
		v-80.518c0-29.206,4.103-52.018,12.314-68.44c8.207-16.418,22.984-29.602,44.332-39.548c21.343-9.946,48.642-14.919,81.891-14.919
		c27.91,0,51.875,3.197,71.886,9.591c20.011,6.394,35.452,14.723,46.333,24.984c10.876,10.265,18.318,20.84,22.32,31.733
		C714.553,803.959,716.554,820.536,716.554,842.797z M592.178,819.115c0-16.104-1.13-26.246-3.386-30.431
		c-2.261-4.181-7.081-6.275-14.47-6.275s-12.314,2.094-14.777,6.275c-2.463,4.185-3.694,14.328-3.694,30.431v141.853
		c0,14.842,1.231,24.511,3.694,29.01c2.463,4.5,7.283,6.749,14.47,6.749c7.389,0,12.261-2.05,14.623-6.157
		c2.357-4.103,3.541-12.943,3.541-26.523V819.115z"/>
	<path d="M1042.271,732.44v314.255H915.74l2.155-26.109c-8.62,10.598-19.241,18.547-31.863,23.846
		c-12.623,5.299-27.145,7.947-43.563,7.947c-18.679,0-34.173-2.527-46.487-7.578s-21.396-11.76-27.246-20.129
		c-5.849-8.367-9.496-17.088-10.929-26.168c-1.438-9.077-2.155-27.115-2.155-54.112V732.44h124.376v213.845
		c0,24.474,0.972,38.997,2.925,43.574c1.948,4.581,7.235,6.867,15.855,6.867c9.235,0,14.724-2.367,16.47-7.104
		c1.742-4.736,2.617-19.97,2.617-45.706V732.44H1042.271z"/>
</g>
<g>
	<path d="M589.959,1688.092v81.98l-43.973,21.63l55.099,81.069H455.064l-18.964-27.002c-48.919,24.811-95.241,37.213-138.951,37.213
		c-45.796,0-81.059-11.713-105.775-35.135c-24.722-23.424-37.08-51.65-37.08-84.683c0-26.426,7.283-47.146,21.861-62.161
		c14.572-15.014,36.434-27.223,65.584-36.635c-41.643-23.02-62.461-54.152-62.461-93.392c0-33.83,14.834-61.058,44.503-81.68
		c29.669-20.617,70.525-30.931,122.58-30.931c46.846,0,83.737,10.111,110.673,30.33c26.937,20.223,40.404,45.945,40.404,77.176
		c0,32.834-16.396,61.963-49.188,87.385l55.647,77.387L589.959,1688.092z M382.069,1790.895l-50.92-65.571
		c-19.531,13.616-29.291,28.331-29.291,44.147c0,11.412,3.05,19.971,9.149,25.676s15.121,8.559,27.064,8.559
		C350.79,1803.705,365.454,1799.435,382.069,1790.895z M346.362,1602.809c17.958-17.816,26.937-34.834,26.937-51.05
		c0-7.005-2.605-13.41-7.808-19.219c-5.209-5.804-12.492-8.708-21.861-8.708c-8.589,0-15.097,2.205-19.52,6.605
		c-4.428,4.406-6.636,11.111-6.636,20.12C317.474,1569.377,327.099,1586.795,346.362,1602.809z"/>
</g>
<g>
	<path d="M656.938,1157.453l-1.346,18.679c6.025-7.409,13.205-12.966,21.541-16.673c8.333-3.703,17.821-5.557,28.466-5.557
		c20.772,0,37.12,7.411,49.045,22.229c6.54-7.409,13.911-12.966,22.119-16.673c8.204-3.703,17.31-5.557,27.311-5.557
		c13.205,0,24.138,2.467,32.793,7.397c8.655,4.933,14.2,10.974,16.637,18.124c2.434,7.152,3.654,18.766,3.654,34.842v139.516
		h-75.395v-127.976c0-16.767-0.739-27.149-2.212-31.144c-1.476-3.994-4.904-5.992-10.29-5.992c-5.514,0-9.072,1.975-10.674,5.918
		c-1.605,3.947-2.404,14.352-2.404,31.218v127.976h-75.395v-124.721c0-19.233-0.61-30.773-1.827-34.62
		c-1.22-3.847-4.586-5.771-10.097-5.771c-3.462,0-6.413,1.014-8.848,3.033c-2.437,2.023-3.783,4.49-4.039,7.398
		c-0.258,2.91-0.384,9.098-0.384,18.566v136.113h-75.395v-196.328H656.938z"/>
	<path d="M1059.686,1226.397v48.083c0,17.657-1.154,30.604-3.462,38.838c-2.308,8.236-7.245,15.93-14.81,23.08
		c-7.567,7.152-17.28,12.428-29.139,15.83c-11.862,3.402-25.484,5.104-40.871,5.104c-17.184,0-31.735-1.455-43.66-4.363
		s-21.19-7.299-27.792-13.168c-6.605-5.867-11.317-12.969-14.136-21.305c-2.822-8.334-4.231-20.836-4.231-37.506v-50.303
		c0-18.246,2.563-32.498,7.693-42.757c5.127-10.257,14.359-18.493,27.696-24.708c13.334-6.213,30.389-9.32,51.161-9.32
		c17.436,0,32.408,1.998,44.91,5.992s22.148,9.198,28.946,15.608c6.794,6.413,11.444,13.02,13.944,19.825
		S1059.686,1212.49,1059.686,1226.397z M981.983,1211.603c0-10.061-0.707-16.397-2.116-19.011c-1.413-2.613-4.424-3.922-9.04-3.922
		c-4.616,0-7.693,1.309-9.232,3.922c-1.539,2.613-2.308,8.95-2.308,19.011v88.622c0,9.271,0.769,15.313,2.308,18.123
		c1.539,2.811,4.55,4.217,9.04,4.217c4.616,0,7.66-1.281,9.136-3.848c1.473-2.563,2.212-8.086,2.212-16.57V1211.603z"/>
	<path d="M1261.059,1226.397v48.083c0,17.657-1.153,30.604-3.461,38.838c-2.309,8.236-7.246,15.93-14.811,23.08
		c-7.566,7.152-17.279,12.428-29.139,15.83c-11.861,3.402-25.484,5.104-40.871,5.104c-17.184,0-31.734-1.455-43.659-4.363
		s-21.19-7.299-27.792-13.168c-6.605-5.867-11.318-12.969-14.137-21.305c-2.822-8.334-4.231-20.836-4.231-37.506v-50.303
		c0-18.246,2.563-32.498,7.693-42.757c5.127-10.257,14.358-18.493,27.696-24.708c13.334-6.213,30.389-9.32,51.16-9.32
		c17.437,0,32.408,1.998,44.91,5.992s22.148,9.198,28.947,15.608c6.794,6.413,11.443,13.02,13.943,19.825
		S1261.059,1212.49,1261.059,1226.397z M1183.356,1211.603c0-10.061-0.706-16.397-2.116-19.011
		c-1.412-2.613-4.424-3.922-9.039-3.922c-4.616,0-7.693,1.309-9.232,3.922s-2.308,8.95-2.308,19.011v88.622
		c0,9.271,0.769,15.313,2.308,18.123s4.551,4.217,9.04,4.217c4.616,0,7.66-1.281,9.136-3.848c1.473-2.563,2.212-8.086,2.212-16.57
		V1211.603z"/>
	<path d="M1365.689,1157.453l-1.348,18.087c5.642-7.212,12.532-12.622,20.677-16.229c8.142-3.606,17.532-5.409,28.177-5.409
		c13.334,0,24.234,2.418,32.697,7.25c8.463,4.834,13.91,10.925,16.348,18.271c2.435,7.349,3.654,19.604,3.654,36.766v137.592
		h-77.703v-135.965c0-13.512-0.576-21.748-1.73-24.707s-4.361-4.439-9.617-4.439c-5.514,0-8.977,1.701-10.386,5.105
		c-1.412,3.402-2.116,12.501-2.116,27.296v132.71h-77.702v-196.328H1365.689z"/>
</g>
<g>
	<path d="M1191.946,918.104l-1.895,3.552h-31.023l-52.811,90.227c-6.475,10.894-9.709,19.578-9.709,26.05
		c0,7.104,3.715,10.656,11.146,10.656c14.387,0,38.652-25.062,72.802-75.189c1.106-1.576,2.054-2.368,2.846-2.368
		c0.947,0,1.421,0.474,1.421,1.421c-0.159,0.474-0.947,1.739-2.368,3.797l-10.194,13.991
		c-29.717,41.269-52.081,61.901-67.097,61.901c-7.43,0-13.632-2.687-18.612-8.052s-7.467-12.077-7.467-20.13
		c0-9.473,4.182-21.313,12.552-35.522l39.785-66.782h-24.156l2.369-3.552h23.682l27.707-45.942
		c4.736,1.266,9.236,1.895,13.498,1.895c4.419,0,9-0.629,13.736-1.895l-27.234,45.942H1191.946z"/>
	<path d="M1324.918,972.217c0,2.52-4.662,8.421-13.983,17.706c-13.905,13.854-26.7,20.776-38.39,20.776
		c-4.899,0-9.247-0.947-13.036-2.842c-20.854,29.525-40.447,44.285-58.774,44.285c-9.48,0-17.58-3.908-24.293-11.723
		c-6.716-7.814-10.072-17.169-10.072-28.063c0-24.311,15.945-47.755,47.838-70.334c22.416-15.944,40.888-23.918,55.414-23.918
		c13.577,0,20.367,7.264,20.367,21.787c0,18.157-9.555,40.022-28.655,65.599c3.156,1.895,6.709,2.842,10.657,2.842
		c7.104,0,15.403-3.305,24.902-9.914c9.495-6.608,17.254-14.553,23.274-23.841c1.743-2.205,3.012-3.308,3.804-3.308
		C1324.6,971.27,1324.918,971.588,1324.918,972.217z M1286.436,940.365c0-12.788-5.765-19.182-17.287-19.182
		c-14.368,0-31.893,13.735-52.574,41.206c-20.684,27.471-31.022,50.601-31.022,69.387c0,10.894,5.21,16.341,15.63,16.341
		c17.051,0,35.678-14.051,55.889-42.154c-4.581-5.05-6.867-10.26-6.867-15.629c0-7.733,3.078-15.708,9.235-23.918
		c6.157-8.207,12.155-12.314,17.998-12.314c2.523,0,4.263,1.58,5.21,4.736C1285.17,953.313,1286.436,947.155,1286.436,940.365z"/>
</g>
<g>
	<path d="M257.964,1225.19l-1.895,3.552h-31.023l-52.811,90.228c-6.475,10.894-9.709,19.578-9.709,26.05
		c0,7.104,3.715,10.656,11.146,10.656c14.387,0,38.652-25.062,72.802-75.189c1.106-1.576,2.054-2.367,2.846-2.367
		c0.947,0,1.421,0.473,1.421,1.42c-0.159,0.475-0.947,1.74-2.368,3.797l-10.194,13.991c-29.717,41.269-52.081,61.901-67.097,61.901
		c-7.43,0-13.632-2.687-18.612-8.052s-7.467-12.077-7.467-20.13c0-9.473,4.182-21.313,12.552-35.521l39.785-66.783h-24.156
		l2.369-3.552h23.682l27.707-45.942c4.736,1.266,9.236,1.895,13.498,1.895c4.419,0,9-0.629,13.736-1.895l-27.234,45.942H257.964z"/>
	<path d="M402.066,1279.066c0,1.266-0.792,2.689-2.372,4.27l-10.194,13.991c-29.713,41.269-51.841,61.901-66.383,61.901
		c-7.589,0-13.794-2.723-18.612-8.17c-4.821-5.447-7.229-12.273-7.229-20.484c0-11.049,5.998-25.495,17.998-43.338
		c18.786-27.626,28.181-44.048,28.181-49.258c0-6.157-3.237-9.236-9.71-9.236c-9.473,0-22.419,9.318-38.838,27.945
		c-15.788,17.842-37.498,51.625-65.124,101.357c-4.736-0.947-8.763-1.422-12.077-1.422c-3.475,0-8.134,0.475-13.973,1.422
		l34.813-62.994c4.736-8.998,11.996-22.26,21.787-39.785c5.209-8.525,21.231-35.678,48.073-81.465l35.996-61.098
		c4.736,0.947,8.763,1.42,12.077,1.42c6.313,0,12.314-0.787,17.998-2.367c-16.421,26.367-40.891,65.834-73.412,118.408
		c-0.947,1.58-13.185,21.945-36.707,61.098c29.68-44.047,53.125-66.071,70.334-66.071c6.787,0,12.589,2.923,17.406,8.763
		c4.814,5.842,7.223,12.947,7.223,21.313c0,10.895-6.948,26.605-20.84,47.127c-15.474,22.894-23.207,37.262-23.207,43.101
		c0,6.79,3.396,10.183,10.197,10.183c12.329,0,32.726-19.922,61.188-59.77l7.349-10.198l4.271-5.218
		c0.788-1.58,1.735-2.371,2.842-2.371C401.748,1278.119,402.066,1278.438,402.066,1279.066z"/>
	<path d="M521.895,1279.777c0,0.473-1.425,2.523-4.267,6.148l-10.19,12.767c-32.71,40.358-60.758,60.536-84.144,60.536
		c-11.063,0-20.348-3.988-27.852-11.959s-11.257-17.957-11.257-29.957c0-28.418,19.812-53.439,59.441-75.071
		c20.84-11.367,37.81-17.051,50.916-17.051c5.684,0,10.538,1.698,14.563,5.091c4.026,3.397,6.039,7.542,6.039,12.434
		c0,11.367-7.423,21.039-22.261,29.01c-14.842,7.975-39.63,15.434-74.36,22.379c-10.738,16.264-16.104,29.84-16.104,40.732
		c0,13.58,7.349,20.367,22.046,20.367c24.97,0,55.549-24.352,91.74-73.063c1.895-2.523,3.475-3.785,4.74-3.785
		C521.576,1278.515,521.895,1278.988,521.895,1279.777z M501.884,1235.848c0-5.051-2.764-7.578-8.288-7.578
		c-8.37,0-19.383,5.801-33.036,17.406c-13.658,11.604-27.038,26.641-40.141,45.113c22.734-5.84,41.994-14.092,57.783-24.748
		C493.987,1255.385,501.884,1245.32,501.884,1235.848z"/>
</g>
<use xlink:href="#Arrow_26"  width="45.72" height="26.28" x="-22.86" y="-13.14" transform="matrix(-10.8114 0 0 14.4138 1701.9551 1733.373)" overflow="visible"/>
<path fill="#FF0000" d="M1916.314,197.581c-75.204-88.994-204.037-82.168-286.287,15.168l-49.163,58.177l-49.162-58.177
	c-82.25-97.336-211.081-104.162-286.284-15.168c-75.204,88.995-69.436,241.446,12.817,338.782l49.162,58.178l273.467,323.61
	l273.465-323.61l49.161-58.178C1985.747,439.027,1991.512,286.576,1916.314,197.581z"/>
<path fill="#FFFFFF" d="M1817.449,293.362c-53.293-63.065-144.59-58.228-202.876,10.749l-34.839,41.227l-34.839-41.227
	c-58.286-68.977-149.581-73.814-202.874-10.749s-49.205,171.099,9.083,240.076l34.839,41.228l193.791,229.325l193.789-229.325
	l34.838-41.228C1866.652,464.461,1870.737,356.427,1817.449,293.362z"/>
<path d="M1737.088,372.383c-35.278-41.748-95.715-38.546-134.3,7.115l-23.063,27.292l-23.063-27.292
	c-38.584-45.661-99.02-48.863-134.299-7.115c-35.278,41.749-32.572,113.265,6.014,158.926l23.063,27.292l128.286,151.809
	l128.284-151.809l23.063-27.292C1769.66,485.647,1772.364,414.131,1737.088,372.383z"/>
<g>
	<path d="M1756.03,1455.5c-5.3,0.33-10.65,0.5-16.03,0.5c-140.28,0-254-113.72-254-254s113.72-254,254-254
		c5.38,0,10.73,0.17,16.03,0.5C1673.42,956.77,1608,1067.1,1608,1202S1673.42,1447.23,1756.03,1455.5z"/>
	<g>
		<path fill-rule="evenodd" clip-rule="evenodd" stroke="#000000" stroke-miterlimit="10" d="M1776.279,1409.949
			c-0.314,0.367-0.676,0.686-1.229,1.238c-3.598-9.627-7.156-19.047-10.64-28.49c-6.004-16.295-11.957-32.615-17.94-48.915
			c-0.527-1.438-0.824-2.551,0.532-3.992c11.596-12.328,23.068-24.77,34.575-37.187c0.187-0.894,0.804-1.535,1.493-1.995
			c0.646-0.434,1.045-0.093,0.858,0.724c3.567,27.712,8.811,55.093,17.485,81.695c1.438,4.414,0.932,6.979-2.165,10.338
			C1791.315,1391.972,1783.904,1401.059,1776.279,1409.949z"/>
		<path fill-rule="evenodd" clip-rule="evenodd" stroke="#000000" stroke-miterlimit="10" d="M1862.245,1382.6
			c0.208,2.428-0.128,3.683-2.845,3.839c-2.076,0.119-4.121,0.736-6.404,1.174c-1.179-10.014-2.34-19.926-3.505-29.842
			c-1.798-15.313-3.563-30.634-5.417-45.942c-0.285-2.335-0.136-4.524,0.498-6.791c2.049-7.314,4.056-14.645,5.868-22.019
			c0.501-2.007,1.407-2.743,3.363-3.007c3.56-0.472,7.08-1.236,11.001-1.952c-2.688,8.071-5.21,15.832-7.866,23.542
			c-0.907,2.615-1.183,5.188-0.944,7.943C1858.103,1333.894,1860.098,1358.255,1862.245,1382.6z"/>
		<path fill-rule="evenodd" clip-rule="evenodd" stroke="#000000" stroke-miterlimit="10" d="M1869.75,1378.189
			c-0.625-6.791-1.276-13.438-1.846-20.097c-1.301-15.154-2.44-30.327-3.912-45.465c-0.43-4.41-0.068-8.497,1.701-12.528
			c0.91-2.075,1.615-4.243,3.035-6.404c0.094,1.276,0.218,2.557,0.295,3.832c1.352,23.686,2.653,47.361,4.107,71.039
			C1873.352,1372.215,1873.391,1375.553,1869.75,1378.189z"/>
		<path fill-rule="evenodd" clip-rule="evenodd" stroke="#000000" stroke-miterlimit="10" d="M1809.099,1371.509
			c-20.755-67.76-26.062-136.172-8.479-205.479c7.794-30.74,20.092-59.588,37.582-86.118c3.3-5.001,6.859-9.853,10.712-14.471
			c1.44-1.731,2.419-2.104,3.763-0.046c0.654,0.994,1.552,1.832,2.335,2.742c36.217,41.957,63.057,88.928,75.869,143.243
			c11.887,50.359,8.67,99.899-9.027,148.503c-1.297,3.568-2.85,7.033-4.167,10.589c-0.523,1.399-1.085,1.799-2.594,1.216
			c-10.206-3.921-20.947-5.188-31.735-5.957c-2.509-0.179-2.768-1.11-2.884-3.164c-1.572-28.516-3.228-57.019-4.852-85.527
			c-0.077-1.402-0.195-2.78-0.812-4.086c-1.599-3.385-2.9-4.082-6.635-3.41c-6.403,1.156-12.795,2.377-19.203,3.478
			c-2.768,0.48-4.389,1.854-5.11,4.671c-2.382,9.294-4.912,18.552-7.435,27.81c-0.454,1.688-0.492,3.325-0.288,5.043
			c2.097,17.702,4.116,35.413,6.28,53.106c0.26,2.131-0.221,2.586-2.3,2.811c-9.76,1.051-19.413,2.752-28.657,6.213
			C1810.043,1373.201,1809.563,1373.002,1809.099,1371.509z"/>
		<path fill-rule="evenodd" clip-rule="evenodd" stroke="#000000" stroke-miterlimit="10" d="M1882.682,1433.116
			c-1.174,3.548-1.208,7.289-1.748,10.941c-0.468,3.164-0.77,6.366-2.113,9.325c-1.28,2.811-2.696,2.96-4.482,0.443
			c-2.934-4.135-4.35-8.952-6.025-13.646c-1.472-4.133-2.482-8.437-4.613-12.328c-1.599-2.916-2.743-2.929-4.576-0.109
			c-1.713,2.623-2.713,5.562-3.776,8.462c-2.305,6.275-4.277,12.671-6.956,18.812c-0.281,0.639-0.412,1.374-0.8,1.932
			c-0.77,1.109-1.22,2.878-2.854,2.768c-1.675-0.118-1.9-1.9-2.287-3.181c-1.846-6.047-2.568-12.323-3.619-18.535
			c-1.692-9.951-2.926-19.995-6.034-29.652c-0.399-1.25-0.438-3.074-2.211-3.189c-1.479-0.093-2.054,1.408-2.695,2.509
			c-4.108,7.018-9.143,13.123-16.495,16.98c-1.48,0.773-2.994,2.059-4.698,1.051c-1.706-1.018-1.37-2.97-1.344-4.645
			c0.093-6.65,2.385-12.701,5.102-18.642c3.794-8.284,8.539-16.032,13.123-23.882c0.697-1.19,1.6-1.964,3.023-2.173
			c4.945-0.735,9.899-1.438,14.824-2.33c1.964-0.357,2.292,0.464,2.457,2.127c0.498,5.081,1.11,10.149,1.752,15.214
			c0.502,3.98,2.19,5.184,6.115,4.432c4.911-0.948,9.802-1.969,14.717-2.904c2.066-0.4,3.615-1.361,4.853-3.152
			c2.619-3.775,5.413-7.437,8.194-11.102c0.62-0.816,1.39-1.663,1.369-2.604c-0.073-3.065,1.734-2.772,3.805-2.486
			c3.675,0.501,7.353,0.939,11.039,1.258c1.693,0.145,2.578,0.749,3.177,2.453c6.111,17.262,11.124,34.827,14.823,52.755
			c0.439,2.131,0.864,4.291,0.464,6.773c-5.813-3.27-11.157-6.6-17.157-8.636c-1.723-0.583-3.453-1.012-5.26-1.135
			C1887.112,1426.695,1884.156,1428.656,1882.682,1433.116z"/>
		<path fill-rule="evenodd" clip-rule="evenodd" stroke="#000000" stroke-miterlimit="10" d="M1951.016,1409.814
			c-5.303-6.451-10.635-12.932-15.955-19.416c-3.372-4.104-6.692-8.241-10.095-12.314c-0.838-1-1.198-1.719-0.54-3.135
			c9.108-19.553,14.007-40.346,17.839-61.441c1.352-7.459,2.305-14.977,3.083-22.949c3.976,3.559,6.995,7.386,10.277,10.957
			c8.543,9.292,17.022,18.646,25.607,27.903c1.212,1.307,1.285,2.331,0.672,3.938c-9.551,25.105-19.765,49.956-29.787,74.879
			C1951.896,1408.798,1951.751,1409.385,1951.016,1409.814z"/>
		<path fill-rule="evenodd" clip-rule="evenodd" stroke="#000000" stroke-miterlimit="10" d="M1915.093,1371.688
			c-10.206-3.921-20.947-5.188-31.735-5.957c-2.509-0.179-2.768-1.11-2.884-3.164c-1.572-28.516-3.228-57.019-4.852-85.527
			c-0.077-1.402-0.195-2.78-0.812-4.086c-1.599-3.385-2.9-4.082-6.635-3.41c-6.403,1.156-12.795,2.377-19.203,3.478
			c-2.768,0.48-4.389,1.854-5.11,4.671c-2.382,9.294-4.912,18.552-7.435,27.81c-0.454,1.688-0.492,3.325-0.288,5.043
			c2.097,17.702,4.116,35.413,6.28,53.106c0.26,2.131-0.221,2.586-2.3,2.811c-9.76,1.051-19.413,2.752-28.657,6.213
			c-1.42,0.527-1.9,0.328-2.364-1.165c-20.755-67.76-26.062-136.172-8.479-205.479c7.794-30.74,20.092-59.588,37.582-86.118
			c3.3-5.001,6.859-9.853,10.712-14.471c1.44-1.731,2.419-2.104,3.763-0.046c0.654,0.994,1.552,1.832,2.335,2.742
			c36.217,41.957,63.057,88.928,75.869,143.243c11.887,50.359,8.67,99.899-9.027,148.503c-1.297,3.568-2.85,7.033-4.167,10.589
			C1917.163,1371.871,1916.602,1372.271,1915.093,1371.688z"/>
		<path fill-rule="evenodd" clip-rule="evenodd" stroke="#000000" stroke-miterlimit="10" d="M1878.82,1453.383
			c-1.28,2.811-2.696,2.96-4.482,0.443c-2.934-4.135-4.35-8.952-6.025-13.646c-1.472-4.133-2.482-8.437-4.613-12.328
			c-1.599-2.916-2.743-2.929-4.576-0.109c-1.713,2.623-2.713,5.562-3.776,8.462c-2.305,6.275-4.277,12.671-6.956,18.812
			c-0.281,0.639-0.412,1.374-0.8,1.932c-0.77,1.109-1.22,2.878-2.854,2.768c-1.675-0.118-1.9-1.9-2.287-3.181
			c-1.846-6.047-2.568-12.323-3.619-18.535c-1.692-9.951-2.926-19.995-6.034-29.652c-0.399-1.25-0.438-3.074-2.211-3.189
			c-1.479-0.093-2.054,1.408-2.695,2.509c-4.108,7.018-9.143,13.123-16.495,16.98c-1.48,0.773-2.994,2.059-4.698,1.051
			c-1.706-1.018-1.37-2.97-1.344-4.645c0.093-6.65,2.385-12.701,5.102-18.642c3.794-8.284,8.539-16.032,13.123-23.882
			c0.697-1.19,1.6-1.964,3.023-2.173c4.945-0.735,9.899-1.438,14.824-2.33c1.964-0.357,2.292,0.464,2.457,2.127
			c0.498,5.081,1.11,10.149,1.752,15.214c0.502,3.98,2.19,5.184,6.115,4.432c4.911-0.948,9.802-1.969,14.717-2.904
			c2.066-0.4,3.615-1.361,4.853-3.152c2.619-3.775,5.413-7.437,8.194-11.102c0.62-0.816,1.39-1.663,1.369-2.604
			c-0.073-3.065,1.734-2.772,3.805-2.486c3.675,0.501,7.353,0.939,11.039,1.258c1.693,0.145,2.578,0.749,3.177,2.453
			c6.111,17.262,11.124,34.827,14.823,52.755c0.439,2.131,0.864,4.291,0.464,6.773c-5.813-3.27-11.157-6.6-17.157-8.636
			c-1.723-0.583-3.453-1.012-5.26-1.135c-4.661-0.324-7.617,1.637-9.092,6.097c-1.174,3.548-1.208,7.289-1.748,10.941
			C1880.466,1447.222,1880.164,1450.424,1878.82,1453.383z"/>
		<path fill-rule="evenodd" clip-rule="evenodd" stroke="#000000" stroke-miterlimit="10" d="M1775.051,1411.188
			c-3.598-9.627-7.156-19.047-10.64-28.49c-6.004-16.295-11.957-32.615-17.94-48.915c-0.527-1.438-0.824-2.551,0.532-3.992
			c11.596-12.328,23.068-24.77,34.575-37.187c0.625-0.711,0.859-2.151,2.352-1.271c3.567,27.712,8.811,55.093,17.485,81.695
			c1.438,4.414,0.932,6.979-2.165,10.338c-7.935,8.606-15.346,17.693-22.971,26.584
			C1775.965,1410.316,1775.604,1410.635,1775.051,1411.188z"/>
		<path fill-rule="evenodd" clip-rule="evenodd" stroke="#000000" stroke-miterlimit="10" d="M1951.016,1409.814
			c-5.303-6.451-10.635-12.932-15.955-19.416c-3.372-4.104-6.692-8.241-10.095-12.314c-0.838-1-1.198-1.719-0.54-3.135
			c9.108-19.553,14.007-40.346,17.839-61.441c1.352-7.459,2.305-14.977,3.083-22.949c3.976,3.559,6.995,7.386,10.277,10.957
			c8.543,9.292,17.022,18.646,25.607,27.903c1.212,1.307,1.285,2.331,0.672,3.938c-9.551,25.105-19.765,49.956-29.787,74.879
			C1951.896,1408.798,1951.751,1409.385,1951.016,1409.814z"/>
		<path fill-rule="evenodd" clip-rule="evenodd" stroke="#000000" stroke-miterlimit="10" d="M1859.4,1386.438
			c-2.076,0.119-4.121,0.736-6.404,1.174c-1.179-10.014-2.34-19.926-3.505-29.842c-1.798-15.313-3.563-30.634-5.417-45.942
			c-0.285-2.335-0.136-4.524,0.498-6.791c2.049-7.314,4.056-14.645,5.868-22.019c0.501-2.007,1.407-2.743,3.363-3.007
			c3.56-0.472,7.08-1.236,11.001-1.952c-2.688,8.071-5.21,15.832-7.866,23.542c-0.907,2.615-1.183,5.188-0.944,7.943
			c2.108,24.349,4.104,48.71,6.251,73.055C1862.453,1385.027,1862.117,1386.282,1859.4,1386.438z"/>
		<path fill-rule="evenodd" clip-rule="evenodd" stroke="#000000" stroke-miterlimit="10" d="M1869.75,1378.189
			c-0.625-6.791-1.276-13.438-1.846-20.097c-1.301-15.154-2.44-30.327-3.912-45.465c-0.43-4.41-0.068-8.497,1.701-12.528
			c0.91-2.075,1.615-4.243,3.035-6.404c0.094,1.276,0.218,2.557,0.295,3.832c1.352,23.686,2.653,47.361,4.107,71.039
			C1873.352,1372.215,1873.391,1375.553,1869.75,1378.189z"/>
		<path fill-rule="evenodd" clip-rule="evenodd" fill="#797979" stroke="#000000" stroke-miterlimit="10" d="M1781.578,1292.604
			c0.187-0.894,0.804-1.535,1.493-1.995c0.646-0.434,1.045-0.093,0.858,0.724
			C1782.688,1290.915,1782.496,1292.433,1781.578,1292.604z"/>
		<path fill-rule="evenodd" clip-rule="evenodd" fill="#FFFFFF" stroke="#000000" stroke-miterlimit="10" d="M1878.204,1176.474
			c13.104,12.438,15.368,32.741,5.248,47.029c-8.953,12.641-31.03,17.386-44.024,9.057c-10.331-6.624-14.604-16.89-15.211-28.771
			c-0.525-10.294,2.432-19.546,9.324-27.37c5.364-6.088,17.951-13.402,30.169-8.673
			C1869.107,1169.836,1874.09,1172.369,1878.204,1176.474z"/>
		<path fill-rule="evenodd" clip-rule="evenodd" fill="#FEFEFE" stroke="#000000" stroke-miterlimit="10" d="M1868.242,1186.988
			c6.981,7.057,9.288,18.496,4.944,25.936c-3.664,6.278-9.436,9.438-16.643,9.459c-6.89,0.02-11.873-3.43-15.206-9.433
			c-6.35-11.436-2.11-25.438,9.176-30.129C1856.768,1180.223,1862.994,1181.686,1868.242,1186.988z"/>
	</g>
	<path fill-rule="evenodd" clip-rule="evenodd" fill="none" stroke="#000000" stroke-miterlimit="10" d="M1756.03,1455.5
		c0,0,40.571,6.375,19.021-44.313"/>
</g>
<g opacity="0.5">
	<path fill="#A6A6A6" d="M306.677,150.609c13.232,13.231,22.283,29.195,27.155,47.893c4.871,18.695,4.641,37.029-0.691,55.001
		c-4.675,15.47-12.607,28.802-23.798,39.992c-13.167,13.167-28.967,21.725-47.398,25.674c-18.435,3.95-36.768,2.799-55.002-3.455
		c-15.734-5.465-29.525-14.121-41.375-25.971c-13.76-13.76-23.141-29.92-28.143-48.484c-5.203-18.762-5.137-37.26,0.197-55.495
		c4.607-15.537,12.541-28.933,23.798-40.19c13.297-13.297,29.261-21.954,47.892-25.971c18.234-3.885,36.732-2.501,55.495,4.148
		C280.278,129.215,294.235,138.167,306.677,150.609z M293.148,163.743c-16.787-16.787-36.439-25.51-58.951-26.168
		c-10.995-0.33-21.528,1.514-31.6,5.529c-10.007,3.95-18.795,9.711-26.365,17.281c-10.665,10.664-17.611,23.535-20.835,38.609
		c-3.227,14.943-2.24,29.821,2.962,44.633c4.343,12.509,11.19,23.436,20.539,32.784c16.26,16.26,35.713,24.653,58.359,25.181
		c22.579,0.46,41.704-7.143,57.372-22.811c10.729-10.729,17.74-23.601,21.033-38.609c3.29-14.615,2.435-29.361-2.567-44.238
		C309.078,184.282,302.429,173.551,293.148,163.743z M274.881,181.813c5.529,5.529,9.675,11.98,12.442,19.354
		c1.25,3.226,2.303,5.267,3.16,6.123c0.526,0.526,1.709,1.383,3.555,2.567c0.657,0.395,1.284,0.889,1.876,1.481
		c2.896,2.896,3.62,7.307,2.172,13.231c-1.45,5.925-4.576,11.291-9.381,16.096c-3.424,3.424-7.193,5.218-11.307,5.382
		c-4.115,0.165-7.818-1.399-11.109-4.69c-3.555-3.555-4.542-8.295-2.962-14.22c1.842-6.977,2.402-12.409,1.679-16.293
		c-1.12-5.728-3.555-10.467-7.308-14.22c-3.621-3.621-7.719-5.25-12.294-4.888c-4.576,0.361-8.97,2.65-13.182,6.863
		c-4.083,4.082-7.226,8.869-9.43,14.367c-2.206,5.496-3.078,10.846-2.617,16.046c0.46,6.65,3.456,12.738,8.986,18.269
		c6.451,6.451,13.164,9.875,20.144,10.27c2.963,0.197,4.97,0.822,6.023,1.876c1.448,1.448,2.058,3.341,1.827,5.678
		c-0.231,2.337-1.201,4.362-2.913,6.073c-2.172,2.173-5.252,3.9-9.232,5.185c-3.984,1.283-7.622,1.728-10.911,1.333
		c-1.516-0.198-3.787-1.35-6.814-3.457c-1.581-1.053-4.05-2.204-7.406-3.455c-8.099-3.094-15.143-7.638-21.132-13.627
		c-9.81-9.811-15.801-21.264-17.972-34.364c-1.383-8.098-0.858-16.194,1.58-24.292c2.501-8.426,6.549-15.437,12.146-21.032
		c5.463-5.464,12.03-9.397,19.7-11.8c7.668-2.404,15.618-3.046,23.847-1.927C252.53,165.717,264.809,171.741,274.881,181.813z"/>
	<path fill="#A6A6A6" d="M469.016,314.133c7.372,7.372,14.218,15.535,20.54,24.488c5.2,7.308,8.227,13.232,9.084,17.774
		c0.855,4.542-0.33,8.428-3.555,11.652c-2.042,2.042-4.132,3.145-6.271,3.308c-2.14,0.166-5.679-0.575-10.615-2.221
		c-5.793-1.844-10.303-1.713-13.528,0.395c-3.226,2.105-14.09,11.948-32.586,29.525c-17.643,17.248-28.292,27.533-31.944,30.857
		c-3.655,3.325-7.457,6.303-11.405,8.938c-11.522,7.701-22.911,11.388-34.166,11.059c-9.217-0.262-18.828-2.83-28.834-7.701
		c-10.007-4.873-19.125-11.423-27.353-19.651c-7.307-7.307-13.676-15.586-19.107-24.835c-5.433-9.249-9.168-18.252-11.208-27.006
		c-1.712-7.243-1.532-14.533,0.543-21.873c2.073-7.338,5.776-13.677,11.108-19.009c6.582-6.582,14.104-9.956,22.564-10.122
		c8.458-0.162,15.815,2.88,22.07,9.135c6.122,6.122,9.51,13.133,10.171,21.033c0.591,7.966-1.812,14.648-7.209,20.045
		c-1.382,1.383-4.082,3.293-8.097,5.728c-0.792,0.526-1.58,1.186-2.37,1.975c-2.107,2.108-3.063,4.575-2.864,7.406
		c0.196,2.831,1.547,5.496,4.049,7.999c4.41,4.409,9.939,5.989,16.589,4.739c6.648-1.251,13.198-5.101,19.65-11.553l8.887-9.085
		l23.996-24.391c14.086-15.271,22.282-24.356,24.588-27.254c2.303-2.896,3.686-5.76,4.147-8.592
		c0.329-2.303,0.312-4.032-0.049-5.184c-0.362-1.152-1.795-3.834-4.295-8.047c-1.251-1.909-1.68-4.181-1.284-6.814
		c0.394-2.634,1.447-4.805,3.16-6.517c3.555-3.555,7.799-5.004,12.738-4.345c4.936,0.658,11.223,3.489,18.86,8.492
		C453.511,300.079,461.511,306.628,469.016,314.133z"/>
	<path fill="#A6A6A6" d="M564.306,454.254c-4.542-4.543-8.494-6.189-11.85-4.938c-2.503,0.922-6.601,3.539-12.294,7.85
		c-5.695,4.313-10.583,8.51-14.664,12.591c-2.437,2.437-3.326,4.905-2.667,7.405c0.657,2.504,3.16,5.926,7.505,10.27
		c2.896,2.896,5.562,4.511,7.998,4.84c2.435,0.329,5.166-0.494,8.196-2.469c8.688-5.662,15.371-6.156,20.045-1.481
		c8.031,8.03,2.435,21.659-16.787,40.881c-12.18,12.18-22.876,19.386-32.092,21.626c-5.597,1.382-10.237,0.229-13.923-3.457
		c-3.885-3.885-3.522-8.722,1.086-14.516c3.028-3.688,4.987-6.468,5.876-8.344c0.888-1.877,1.267-4.131,1.135-6.764
		c-0.132-4.213-2.271-8.395-6.418-12.541c-2.962-2.963-5.499-4.443-7.604-4.444c-2.107,0-4.576,1.547-7.406,4.642
		c-0.527,0.527-3.622,3.555-9.282,9.084c-11.39,11.391-17.149,19.52-17.281,24.391c-0.198,1.777-0.034,3.225,0.494,4.346
		c0.526,1.117,2.27,3.686,5.233,7.701c1.448,1.976,2.008,4.313,1.679,7.012c-0.33,2.699-1.481,5.036-3.456,7.011
		c-5.07,5.069-11.291,5.366-18.663,0.889c-10.599-6.519-23.635-17.512-39.104-32.981c-13.562-13.562-22.119-23.699-25.674-30.414
		c-1.582-3.028-2.141-6.221-1.679-9.578c0.46-3.357,1.842-6.188,4.147-8.492c2.896-2.896,6.287-4.182,10.171-3.852
		c0.921,0.132,3.553,1.119,7.9,2.963c5.133,2.238,10.695,1.086,16.688-3.456c9.282-6.912,28.34-24.786,57.174-53.62
		c12.442-12.441,20.077-20.934,22.909-25.477c2.83-4.541,3.324-9.183,1.481-13.922c-1.845-4.74-2.733-8.164-2.666-10.27
		c0.064-2.107,1.118-4.18,3.16-6.222c2.896-2.896,6.73-3.9,11.504-3.012c4.771,0.889,9.233,3.407,13.38,7.554
		c2.632,2.633,6.286,6.682,10.96,12.146c9.874,11.586,22.283,24.85,37.228,39.795c23.896,23.896,40.65,39.334,50.262,46.312
		c1.25,0.987,2.173,1.777,2.765,2.37c2.304,2.303,3.191,5.826,2.666,10.566c-1.582,13.165-6.848,24.227-15.799,33.178
		c-4.083,4.082-8.296,6.387-12.639,6.912c-4.347,0.527-8.065-0.757-11.159-3.851c-2.305-2.306-3.589-4.509-3.851-6.616
		c-0.264-2.105-0.066-8.361,0.592-18.762c0.46-6.385-0.873-12.195-3.999-17.429C582.457,474.448,575.364,465.972,564.306,454.254z"
		/>
	<path fill="#A6A6A6" d="M591.264,569.096c1.645,1.645,3.291,3.488,4.937,5.529c7.109,8.821,12.771,15.339,16.984,19.553
		c4.279,4.278,7.536,7.207,9.776,8.787c2.566,1.909,4.212,3.226,4.938,3.951c2.04,2.039,1.546,4.576-1.481,7.604
		c-2.831,2.83-7.079,5.825-12.738,8.984c-5.662,3.16-11.488,5.762-17.478,7.802c-4.675,1.515-8.114,2.288-10.319,2.321
		c-2.207,0.033-4.033-0.676-5.48-2.123c-1.251-1.252-2.7-3.027-4.345-5.333c-4.873-6.847-11.125-14.089-18.761-21.724
		c-3.227-3.227-6.322-6.057-9.282-8.492c-2.371-1.976-4.115-3.523-5.234-4.642c-2.7-2.7-2.469-5.629,0.691-8.788
		c2.106-2.106,6.435-4.889,12.985-8.344c6.548-3.457,11.897-5.811,16.046-7.061c4.938-1.383,8.706-1.96,11.307-1.729
		C586.408,565.623,588.892,566.858,591.264,569.096z"/>
	<path fill="#A6A6A6" d="M778.487,622.221c8.624,8.624,15.534,17.973,20.736,28.045c2.303,4.541,4.082,7.438,5.333,8.689
		c1.316,1.315,4.837,3.324,10.565,6.023c1.843,0.922,3.488,2.105,4.937,3.555c3.686,3.686,5.036,9.381,4.049,17.083
		c-1.581,12.376-6.517,22.712-14.812,31.007c-5.662,5.662-11.669,8.805-18.021,9.43c-6.354,0.627-11.866-1.399-16.54-6.072
		c-3.819-3.819-6.189-8.954-7.11-15.404c-0.265-1.976,0.099-7.802,1.086-17.479c1.645-16.129-2.238-28.9-11.652-38.314
		c-8.559-8.559-18.482-12.227-29.772-11.01c-11.291,1.219-22.235,7.127-32.833,17.725c-15.734,15.734-25.116,33.146-28.143,52.238
		c-0.989,7.043-0.577,13.873,1.234,20.488c1.809,6.617,4.789,11.998,8.937,16.146c3.422,3.422,7.372,5.1,11.849,5.035
		c4.477-0.066,8.492-1.876,12.047-5.432c3.16-3.159,4.475-6.318,3.95-9.479c-0.199-1.252-0.56-2.239-1.086-2.963
		c-0.528-0.725-2.37-2.666-5.53-5.826c-2.832-2.831-4.28-6.088-4.345-9.775c-0.066-3.686,1.283-6.912,4.048-9.678
		c5.463-5.463,12.967-5.727,22.514-0.789c10.466,5.463,20.9,13.395,31.303,23.797c11.125,11.125,19.32,21.625,24.588,31.5
		c4.936,9.414,4.476,17.051-1.383,22.91c-2.37,2.369-5.251,3.604-8.64,3.702c-3.391,0.099-6.568-1.005-9.529-3.308
		c-2.635-1.975-4.641-2.963-6.023-2.963c-1.383,0-3.786,0.988-7.208,2.963c-13.299,7.636-27.584,10.861-42.856,9.678
		c-10.469-0.857-21.05-3.934-31.748-9.233c-10.696-5.3-20.457-12.36-29.278-21.181c-14.417-14.418-24.326-30.973-29.723-49.67
		c-5.598-19.156-5.531-38.049,0.197-56.68c4.739-15.536,13.001-29.195,24.786-40.98c11.915-11.914,26.462-20.014,43.646-24.291
		c18.365-4.674,36.831-3.982,55.396,2.072C749.718,598.982,764.727,608.461,778.487,622.221z"/>
	<path fill="#A6A6A6" d="M869.234,792.559c3.489,3.488,5.118,6.105,4.888,7.85c-0.231,1.744-2.715,5.58-7.455,11.504
		c-2.569,3.227-2.997,5.694-1.284,7.406c1.316,1.316,3.521,1.614,6.616,0.889c13.495-2.962,24.489-0.197,32.981,8.295
		c5.99,5.99,8.952,12.838,8.887,20.539c-0.067,3.752-1.004,7.719-2.814,11.899c-1.811,4.181-4.098,7.653-6.863,10.417
		c-3.095,3.096-6.996,5.546-11.702,7.357c-4.707,1.81-9.266,2.617-13.676,2.42c-8.23-0.198-15.404-3.357-21.527-9.48
		c-3.357-3.357-5.579-6.764-6.666-10.221c-1.086-3.455-1.663-8.837-1.728-16.145c0-2.766-0.592-4.74-1.777-5.925
		c-1.844-1.844-4.082-2.009-6.714-0.493c-2.634,1.514-7.275,5.596-13.923,12.244c-9.941,9.941-16.361,17.084-19.256,21.428
		c-1.515,2.435-2.24,4.443-2.172,6.023c0.064,1.58,1.052,4.113,2.962,7.604c4.147,7.702,4.015,13.76-0.395,18.17
		c-2.7,2.699-6.007,4.098-9.923,4.196c-3.919,0.099-7.786-1.102-11.603-3.604c-7.636-5.004-17.577-13.627-29.822-25.871
		c-11.652-11.652-19.485-21.528-23.501-29.624c-3.557-7.241-3.061-13.134,1.481-17.675c3.422-3.423,8.458-4.51,15.108-3.26
		c3.159,0.658,5.61,0.84,7.357,0.543c1.744-0.296,3.637-1.201,5.678-2.715c7.042-4.938,18.663-15.504,34.857-31.697
		c2.962-2.963,4.755-5.416,5.382-7.357c0.625-1.941,0.346-4.295-0.84-7.061c-2.832-6.518-2.502-11.52,0.988-15.009
		c3.16-3.16,7.488-4.263,12.985-3.308c5.497,0.953,13.149,4.098,22.958,9.43C851.886,778.438,862.059,785.516,869.234,792.559z"/>
	<path fill="#A6A6A6" d="M986.348,908.29c11.455,11.455,18.268,24.063,20.441,37.82c1.117,7.307,0.525,13.792-1.777,19.453
		c-2.306,5.662-6.947,11.982-13.924,18.959l-14.911,14.516c-10.205,10.205-16.097,17.544-17.676,22.021
		c-0.725,2.172-0.955,3.783-0.691,4.838c0.263,1.053,1.283,2.797,3.061,5.234c1.776,2.436,1.448,4.871-0.987,7.307
		c-3.16,3.16-7.721,5.184-13.677,6.072c-5.958,0.889-12.098,0.477-18.417-1.234c-7.833-2.041-14.451-5.762-19.848-11.158
		c-6.912-6.912-10.007-14.746-9.282-23.502c0.329-3.094-0.099-5.232-1.284-6.418c-1.317-1.318-3.885-2.237-7.702-2.765
		c-11.388-1.778-21.264-6.847-29.624-15.207c-8.625-8.624-13.758-17.445-15.404-26.463c-1.056-5.926-0.644-11.867,1.234-17.824
		c1.875-5.957,4.953-11.075,9.233-15.355c6.846-6.846,15.667-10.137,26.464-9.874c16.918,0.328,34.001,9.052,51.25,26.167
		c3.817,3.818,6.599,5.844,8.344,6.074c1.744,0.23,3.999-1.037,6.764-3.803c6.977-6.977,11.305-12.755,12.985-17.33
		c1.678-4.574,0.872-8.508-2.419-11.8c-1.975-1.975-4.329-3.145-7.06-3.505c-2.732-0.363-6.831-0.116-12.294,0.74
		c-14.221,2.5-24.523,0.559-30.908-5.826c-3.226-3.227-4.906-6.813-5.036-10.764c-0.133-3.949,1.348-7.471,4.443-10.566
		c3.16-3.159,7.587-5.053,13.281-5.678c5.694-0.626,11.899,0.05,18.614,2.025C957.776,886.038,973.378,895.321,986.348,908.29z
		 M922.558,958.848c-2.897-2.897-6.6-4.23-11.109-4c-4.51,0.23-8.41,1.992-11.701,5.283c-3.16,3.16-4.956,6.469-5.382,9.924
		c-0.429,3.457,0.608,6.435,3.11,8.938c5.266,5.266,12.344,3.455,21.23-5.432c3.62-3.619,5.677-6.436,6.172-8.443
		C925.371,963.112,924.598,961.02,922.558,958.848z"/>
	<path fill="#A6A6A6" d="M1092.402,1015.527c4.014,4.016,6.171,6.863,6.467,8.543c0.297,1.678-0.938,3.9-3.703,6.664
		c-2.436,2.438-2.863,4.445-1.283,6.023c0.657,0.658,4.113,1.615,10.368,2.865c4.738,0.92,9.939,2.928,15.602,6.023
		c5.661,3.094,10.271,6.418,13.825,9.973c8.359,8.359,12.934,18.729,13.726,31.105c0.591,9.412-1.087,18.859-5.036,28.34
		c-4.148,9.941-10.105,18.795-17.873,26.563c-16.59,16.59-35.847,24.654-57.768,24.193c-16.984-0.264-30.973-5.893-41.967-16.887
		c-5.596-5.596-10.038-12.672-13.33-21.23c-0.658-1.711-1.35-2.93-2.074-3.652c-1.975-1.975-4.938-0.988-8.887,2.963
		c-5.2,5.199-7.208,10.695-6.023,16.49c1.052,5.396,1.514,8.787,1.382,10.17c-0.131,1.381-1.086,2.963-2.864,4.74
		c-3.95,3.949-9.201,4.787-15.75,2.518c-6.55-2.271-13.841-7.422-21.873-15.453c-14.286-14.285-23.93-29.658-28.933-46.115
		c-2.567-8.361-1.711-14.68,2.568-18.959c1.975-1.975,3.883-3.063,5.727-3.258c1.844-0.199,4.51,0.328,7.999,1.58
		c5.002,1.842,9.956,1.068,14.861-2.32c4.903-3.393,17.395-14.73,37.474-34.02c15.733-16.654,24.226-26.332,25.476-29.031
		c0.395-0.922,0.445-1.729,0.148-2.42c-0.296-0.689-1.564-2.682-3.802-5.973c-1.712-2.504-2.452-5.185-2.222-8.048
		c0.229-2.863,1.432-5.382,3.604-7.555c2.633-2.632,5.875-4.031,9.727-4.195c3.851-0.166,8.805,0.872,14.861,3.109
		C1066.267,997.095,1082.789,1006.182,1092.402,1015.527z M1064.852,1062.631l-28.637,25.674c-1.187,1.053-2.305,2.107-3.357,3.16
		c-2.041,2.041-2.799,4.576-2.271,7.604c0.526,3.027,2.271,6.023,5.234,8.984c9.084,9.086,21.098,6.156,36.042-8.787
		c9.677-9.678,14.581-18.402,14.714-26.168c0.064-4.805-1.548-8.855-4.839-12.146
		C1077.063,1056.275,1071.434,1056.838,1064.852,1062.631z"/>
	<path fill="#A6A6A6" d="M1265.603,1124.545l-42.658,40.09c-5.07,4.805-6.024,8.789-2.864,11.949c1.58,1.58,4.213,2.039,7.9,1.383
		c15.666-2.898,28.834,0.986,39.498,11.65c10.467,10.467,15.601,21.988,15.404,34.563c-0.066,5.596-1.465,10.91-4.197,15.947
		c-2.732,5.035-7.653,11.24-14.762,18.613l-34.759,36.537c-3.03,3.158-4.89,5.842-5.579,8.047c-0.693,2.205-0.74,5.777-0.148,10.715
		c0.395,3.422-0.461,6.188-2.566,8.293c-7.11,7.111-21.396-0.064-42.857-21.525c-19.092-19.092-25.313-31.961-18.662-38.609
		c1.119-1.119,2.139-1.813,3.061-2.074c0.922-0.264,3.654-0.691,8.196-1.283c6.385-0.855,16.819-8.525,31.303-23.008
		c8.755-8.756,14.317-15.965,16.688-21.627c3.291-7.635,2.139-14.252-3.456-19.848c-4.017-4.016-8.427-5.529-13.232-4.541
		c-3.489,0.725-8.131,3.982-13.923,9.775l-19.059,19.057c-7.967,8.889-12.344,14.055-13.133,15.504
		c-0.791,1.449-1.352,5.037-1.68,10.764c-0.132,2.633-1.119,4.873-2.961,6.715c-7.44,7.439-20.836,1.48-40.191-17.873
		c-22.646-22.646-30.117-37.82-22.414-45.523c1.777-1.777,3.504-2.781,5.184-3.01c1.678-0.23,4.92,0.08,9.727,0.938
		c4.279,0.723,10.796-2.338,19.553-9.184c8.754-6.848,22.15-19.289,40.189-37.326c14.152-14.154,23.566-24.357,28.24-30.611
		c1.777-2.305,2.799-4.279,3.063-5.926c0.262-1.645-0.066-3.916-0.988-6.813c-1.977-6.189-1.58-10.664,1.186-13.43
		c3.291-3.291,7.503-4.41,12.639-3.357c5.134,1.055,13.266,4.771,24.391,11.158c15.141,8.559,26.232,16.357,33.277,23.402
		C1268.828,1117.895,1269.025,1121.385,1265.603,1124.545z"/>
	<path fill="#A6A6A6" d="M1364.447,1300.213l-57.371,57.373c-4.543,4.541-7.457,8.277-8.739,11.207
		c-1.285,2.93-1.563,6.533-0.839,10.813c0.59,3.488,0.723,6.09,0.395,7.801c-0.33,1.713-1.283,3.357-2.863,4.938
		c-8.492,8.492-23.502,1.977-45.029-19.551c-11.587-11.588-19.848-21.693-24.785-30.316c-1.647-2.961-2.354-5.973-2.123-9.035
		c0.229-3.061,1.398-5.643,3.506-7.75c1.777-1.779,3.521-2.801,5.233-3.063c1.711-0.264,5.135,0,10.27,0.791
		c3.554,0.525,7.472-0.494,11.751-3.063c4.277-2.566,9.809-7.24,16.59-14.021c2.172-2.172,6.088-6.385,11.751-12.639
		c5.661-6.254,8.919-9.941,9.775-11.061c2.304-3.094,2.534-7.012,0.691-11.75c-2.306-5.861-1.712-10.533,1.777-14.021
		c4.147-4.148,9.907-4.576,17.28-1.285c10.203,4.543,20.506,10.039,30.908,16.49c10.4,6.451,17.905,11.982,22.514,16.59
		C1368.759,1292.281,1368.529,1296.133,1364.447,1300.213z M1388.146,1237.41c5.729,5.729,9.199,11.342,10.418,16.838
		c1.217,5.496,0.016,10.057-3.604,13.676c-5.07,5.07-11.621,6.549-19.651,4.443c-12.707-3.357-24.753-10.73-36.141-22.119
		c-4.806-4.807-7.704-9.545-8.69-14.219c-1.448-6.189-0.066-11.389,4.148-15.604c5.66-5.66,14.152-6.055,25.477-1.184
		C1371.622,1224.18,1380.971,1230.234,1388.146,1237.41z"/>
	<path fill="#A6A6A6" d="M1444.729,1366.867c11.717,11.717,19.123,24.982,22.218,39.795c2.896,14.088,0.198,25.279-8.097,33.574
		c-5.728,5.727-12.344,8.393-19.849,7.998c-7.045-0.33-13.167-3.094-18.366-8.295c-5.465-5.465-7.604-11.553-6.419-18.268
		c0.394-2.105,2.337-6.551,5.826-13.33c3.753-7.309,3.126-13.463-1.876-18.467c-3.621-3.621-8.246-5.086-13.875-4.395
		c-5.627,0.691-10.747,3.344-15.354,7.949c-7.9,7.9-12.082,17.74-12.541,29.525c-0.33,9.545,2.994,17.807,9.973,24.785
		c3.291,3.291,6.336,5.777,9.135,7.455c2.795,1.68,6.861,3.475,12.195,5.383c1.381,0.461,2.631,1.25,3.752,2.369
		c2.236,2.238,3.158,5.268,2.765,9.086c-0.396,3.818-2.009,7.143-4.839,9.973c-2.962,2.963-7.291,4.854-12.984,5.678
		c-5.695,0.822-11.736,0.479-18.121-1.037c-13.824-3.293-26.563-10.764-38.214-22.414c-13.563-13.563-21.166-29.066-22.811-46.51
		c-2.239-22.252,4.378-41.111,19.849-56.582c14.877-14.877,32.881-21.494,54.014-19.848
		C1411.318,1342.807,1429.191,1351.33,1444.729,1366.867z"/>
	<path fill="#A6A6A6" d="M1534.391,1456.529c3.291,3.291,7.93,9.381,13.923,18.268c1.249,1.777,2.37,3.16,3.357,4.148
		c1.118,1.117,3.884,2.697,8.294,4.738c2.106,0.922,3.687,1.91,4.74,2.963c3.027,3.027,4.146,8.031,3.357,15.01
		c-0.594,5.596-1.942,11.027-4.049,16.293c-2.107,5.268-4.51,9.25-7.208,11.949c-2.634,2.633-5.745,3.9-9.331,3.801
		c-3.589-0.098-6.765-1.529-9.529-4.295c-2.305-2.305-3.804-4.92-4.493-7.85c-0.692-2.932-1.138-8.313-1.333-16.146
		c-0.133-8.295-1.58-13.824-4.345-16.588c-1.844-1.844-4.116-2.766-6.813-2.766c-2.701,0-4.972,0.922-6.814,2.764
		c-3.226,3.227-3.16,9.35,0.198,18.367c6.12,16.129,9.184,30.119,9.184,41.969c-0.001,10.004-3.622,18.629-10.862,25.871
		c-9.151,9.15-20.803,12.77-34.956,10.861c-12.245-1.58-23.37-7.373-33.376-17.379c-2.568-2.568-6.814-7.672-12.738-15.307
		c-5.662-7.111-8.888-11.059-9.678-11.848c-0.856-0.857-1.942-1.746-3.258-2.668c-2.174-1.646-3.688-2.896-4.543-3.752
		c-3.096-3.096-4.74-6.32-4.938-9.676c-0.266-5.137,1.069-11.473,3.999-19.01c2.929-7.539,6.271-13.182,10.022-16.936
		c6.057-6.055,11.455-6.715,16.195-1.975c1.842,1.842,2.928,4.146,3.258,6.912c0.328,2.766,0.329,9.25,0,19.453
		c-0.199,5.596,0.05,9.826,0.74,12.689c0.692,2.863,2.058,5.314,4.1,7.355c2.172,2.174,4.49,3.342,6.961,3.506
		c2.467,0.166,4.656-0.707,6.566-2.615c2.963-2.963,3.126-8.197,0.494-15.701c-5.4-15.799-7.688-28.818-6.863-39.055
		c0.822-10.236,4.854-18.975,12.096-26.217c7.834-7.834,16.984-12.18,27.452-13.035
		C1509.144,1439.381,1522.541,1444.68,1534.391,1456.529z"/>
	<path fill="#A6A6A6" d="M1563.521,1594.479c6.253,6.252,9.513,13.855,9.775,22.811c0.263,9.084-3.095,17.117-10.071,24.094
		c-6.518,6.518-14.353,9.678-23.502,9.479c-8.953-0.264-16.557-3.521-22.811-9.775c-6.255-6.254-9.514-13.857-9.775-22.811
		c-0.199-9.15,3.061-17.082,9.775-23.797c6.846-6.846,14.777-10.107,23.798-9.775
		C1549.596,1585.031,1557.199,1588.289,1563.521,1594.479z"/>
	<path fill="#A6A6A6" d="M1684.682,1658.564l-33.376,33.377c-3.95,3.949-6.205,8.146-6.765,12.59
		c-0.561,4.443,0.676,8.178,3.704,11.207c2.567,2.568,7.142,4.773,13.726,6.615c1.58,0.396,2.863,1.088,3.851,2.074
		c1.58,1.58,2.072,3.982,1.481,7.209c-0.594,3.227-2.009,5.959-4.246,8.195c-4.082,4.082-10.237,5.76-18.465,5.037
		c-17.314-1.383-32.621-8.725-45.918-22.021c-10.533-10.533-16.015-21.971-16.441-34.314c-0.429-12.342,4.229-23.385,13.973-33.129
		l45.621-45.621c1.514-1.514,2.27-2.633,2.271-3.357c-0.002-0.723-0.758-1.844-2.271-3.357l-10.171-10.17
		c-1.909-1.91-2.814-3.438-2.716-4.592c0.1-1.152,1.3-2.879,3.604-5.184l4.345-4.346c2.041-1.908,4.246-2.598,6.616-2.074
		l73.665,16.787c1.711,0.527,3.39,1.613,5.036,3.26l7.998,7.998c1.646,1.645,2.368,3.127,2.173,4.443
		c-0.199,1.316-1.416,3.094-3.654,5.332l-13.33,13.33c-1.976,1.977-2.947,3.572-2.914,4.789c0.033,1.219,1.07,2.848,3.111,4.889
		l18.268,18.268c2.436,2.436,3.57,4.459,3.407,6.074c-0.165,1.611-1.696,3.867-4.593,6.764l-5.825,5.826
		c-3.16,3.16-5.81,4.887-7.949,5.184c-2.142,0.297-4.428-0.773-6.862-3.209l-17.873-17.873c-1.844-1.844-3.426-2.766-4.74-2.766
		C1688.104,1655.799,1686.524,1656.723,1684.682,1658.564z"/>
	<path fill="#A6A6A6" d="M1834.283,1693.225l-31.797,30.02c-3.161,3.027-7.736,7.537-13.726,13.527
		c-6.649,6.65-10.468,10.664-11.454,12.047c-2.24,3.16-2.207,5.891,0.098,8.195c1.976,1.977,6.27,3.736,12.887,5.283
		c6.615,1.549,10.549,1.695,11.801,0.445c0.724-0.725,1.314-2.766,1.777-6.123c0.328-2.436,1.118-4.277,2.369-5.529
		c7.11-7.109,19.42-1.91,36.932,15.602c9.084,9.084,15.337,17.182,18.762,24.291c1.381,2.832,1.877,5.826,1.481,8.986
		s-1.614,5.762-3.653,7.801c-2.963,2.963-6.453,3.621-10.467,1.975c-0.857-0.328-3.194-1.811-7.012-4.443
		c-3.426-2.369-8.971-4.328-16.639-5.875c-7.67-1.547-12.195-1.629-13.578-0.246c-0.922,0.922-2.47,8.031-4.641,21.328
		c-2.174,13.299-3.72,25.213-4.641,35.746c-0.659,6.848-0.874,11.9-0.643,15.158c0.229,3.258,1.036,7.291,2.42,12.096
		c2.172,7.309,1.612,12.607-1.68,15.898c-3.489,3.49-7.719,4.723-12.688,3.703c-4.972-1.021-10.057-4.131-15.257-9.332
		l-31.993-31.992c-3.951-4.082-5.597-8.691-4.937-13.826l4.641-37.424c1.185-9.875,1.825-15.816,1.926-17.824
		c0.098-2.008-0.183-3.342-0.84-3.998c-0.79-0.791-1.91-0.727-3.357,0.197c-1.449,0.92-3.818,3.027-7.109,6.318
		c-2.963,2.963-4.791,5.449-5.48,7.457c-0.693,2.006-0.807,5.15-0.346,9.43c0.328,3.094-0.856,5.99-3.555,8.689
		c-4.609,4.609-10.37,5.498-17.281,2.666c-6.912-2.832-15.965-9.842-27.155-21.033c-13.167-13.166-21.164-22.283-23.995-27.352
		c-1.581-2.896-2.156-6.139-1.729-9.729c0.428-3.586,1.762-6.5,4-8.738c2.501-2.5,6.056-3.291,10.664-2.369
		c3.884,0.855,6.55,1.217,7.998,1.086c1.448-0.133,3.226-0.855,5.333-2.172c10.729-7.703,25.673-21.199,44.831-40.486l21.625-21.625
		c7.372-7.373,11.7-12.459,12.985-15.258c1.282-2.797,0.642-5.875-1.926-9.232c-4.675-6.121-5.135-11.059-1.382-14.813
		c2.5-2.5,5.939-3.57,10.318-3.209c4.377,0.363,10.253,2.256,17.627,5.678c23.631,10.863,39.598,20.441,47.892,28.736
		C1837.443,1686.707,1837.639,1690.131,1834.283,1693.225z"/>
</g>
<g>
</g>
<g>
</g>
<g>
</g>
<g>
</g>
<g>
</g>
<g>
</g>
<g>
</g>
<g>
</g>
<g>
</g>
<g>
</g>
<g>
</g>
<g>
</g>
<g>
</g>
<g>
</g>
<g>
</g>
<g>
</g>
<g>
</g>
<g>
</g>
</svg>
