<?xml version="1.0" encoding="utf-8"?>
<!-- Generator: Adobe Illustrator 16.0.0, SVG Export Plug-In . SVG Version: 6.00 Build 0)  -->
<!DOCTYPE svg PUBLIC "-//W3C//DTD SVG 1.1//EN" "http://www.w3.org/Graphics/SVG/1.1/DTD/svg11.dtd">
<svg version="1.1" id="Layer_1" xmlns="http://www.w3.org/2000/svg" xmlns:xlink="http://www.w3.org/1999/xlink" x="0px" y="0px"
	 width="1618px" height="1618px" viewBox="0 0 1618 1618" enable-background="new 0 0 1618 1618" xml:space="preserve">
<g>
	<path fill="#343A40" d="M1586,1456c0,71.797-58.203,130-130,130H163c-71.797,0-130-58.203-130-130V163C33,91.203,91.203,33,163,33
		h1293c71.797,0,130,58.203,130,130V1456z"/>
	<path fill="none" stroke="#000000" stroke-width="65" stroke-miterlimit="10" d="M1585.5,1455.5c0,71.797-58.203,130-130,130h-1293
		c-71.797,0-130-58.203-130-130v-1293c0-71.797,58.203-130,130-130h1293c71.797,0,130,58.203,130,130V1455.5z"/>
</g>
<linearGradient id="SVGID_1_" gradientUnits="userSpaceOnUse" x1="98" y1="809" x2="1520" y2="809">
	<stop  offset="0" style="stop-color:#0000FF"/>
	<stop  offset="1" style="stop-color:#FFFFFF"/>
</linearGradient>
<polygon fill="url(#SVGID_1_)" points="1331.043,449 1520,270 899,270 720,270 265.826,270 98,449 719,449 719,650 719,829 
	719,1169 462,1169 462,889 283,1032 283,1168 283,1348 463,1348 720,1348 898,1348 898,1168 898,830 989.739,830 1153,651 898,651 
	898,449 "/>
<g>
</g>
<g>
</g>
<g>
</g>
<g>
</g>
<g>
</g>
<g>
</g>
<g>
</g>
<g>
</g>
<g>
</g>
<g>
</g>
<g>
</g>
<g>
</g>
<g>
</g>
<g>
</g>
<g>
</g>
</svg>
